<svg xmlns="http://www.w3.org/2000/svg" viewBox="0 0 1632.62 1747.6"><defs><style>.cls-1{fill:#ee1824;}.cls-1,.cls-10,.cls-11,.cls-12,.cls-13,.cls-14,.cls-2,.cls-3,.cls-4,.cls-5,.cls-6,.cls-7,.cls-8,.cls-9{fill-rule:evenodd;}.cls-2{fill:#ff6971;}.cls-22,.cls-3,.cls-4{fill:#282828;}.cls-23,.cls-3{opacity:0.2;}.cls-5{fill:#d1830f;}.cls-16,.cls-6{fill:#fff;}.cls-7{fill:#adb0d3;}.cls-8{fill:#bf5f5a;}.cls-9{fill:#ed8680;}.cls-10,.cls-19{fill:#f9a528;}.cls-11{fill:#f7da8e;}.cls-12{fill:#d1a635;}.cls-13{fill:#feca29;}.cls-14{fill:#fff0a7;}.cls-15{opacity:0.3;}.cls-17{fill:#000072;}.cls-18{fill:#ff6c6c;}.cls-20{opacity:0.4;}.cls-21{fill:#982e20;}</style></defs><g id="Layer_2" data-name="Layer 2"><g id="Layer_1-2" data-name="Layer 1"><path class="cls-1" d="M1207.54,927.37c89.42,160,235.44,284.1,411,345.16C1453,1542,1155.68,1721.68,816.31,1721.68S179.59,1542,14.12,1272.53c175.53-61.06,321.55-185.15,411-345.16Z"/><path class="cls-2" d="M1351.94,1111.51a753.92,753.92,0,0,0,266.57,161,945,945,0,0,1-107,142.2l-13.88-5.65c25.14-37.48,46.22-76.34,61.15-117.27-91.55-43.47-166.79-100.35-221.14-174.38l14.34-5.92Zm-1230.8,303.2a944.74,944.74,0,0,1-107-142.18,753.73,753.73,0,0,0,266.61-161.07l14.34,5.93c-54.34,74-129.58,130.9-221.13,174.37,14.92,40.94,36,79.79,61.15,117.27Z"/><path class="cls-3" d="M1271.32,1023.43a759.75,759.75,0,0,0,66.42,74.48,121.45,121.45,0,0,1-3.72,40,119.8,119.8,0,0,1-6.22,17.52,941.35,941.35,0,0,1,69.47,184.76,128.66,128.66,0,0,1,22.65,9.94c34.67,19.43,56.83,53,65.14,92.35a942.66,942.66,0,0,1-293,201.09,139,139,0,0,1-23.68-42H1060.85v87.95a947.26,947.26,0,0,1-491.47-.66v-87.29H464.25a139,139,0,0,1-23.69,42,942.69,942.69,0,0,1-292.95-201.06c8.31-39.38,30.47-73,65.15-92.4a128.89,128.89,0,0,1,22.64-9.94,942,942,0,0,1,69.48-184.76,119.8,119.8,0,0,1-6.22-17.52,121.54,121.54,0,0,1-3.71-40.08,757.07,757.07,0,0,0,66.35-74.42h1.33a66.65,66.65,0,0,1,22.2,3.87,691.55,691.55,0,0,1,93-99.92h677.05a690.94,690.94,0,0,1,93,99.92,66.65,66.65,0,0,1,22.2-3.87Z"/><path class="cls-4" d="M1220.42,921.49a742.76,742.76,0,0,0,402.73,337.71,14.12,14.12,0,0,1,8.68,18,13.21,13.21,0,0,1-1.28,2.71h0a959.62,959.62,0,0,1-348.47,334.81c-137.81,77.16-296.67,121.15-465.78,121.15s-328-44-465.77-121.15A959.55,959.55,0,0,1,2.07,1279.88a14.12,14.12,0,0,1,4.7-19.41A14.69,14.69,0,0,1,10,1259,739.23,739.23,0,0,0,242,1127a743,743,0,0,0,170.8-206.45,14.1,14.1,0,0,1,12.33-7.25v0h782.46a14.16,14.16,0,0,1,12.88,8.28Zm152.13,227.15a772,772,0,0,1-173.2-207.12H433.28a772.15,772.15,0,0,1-173.2,207.12A767.65,767.65,0,0,1,35.39,1279.86a931.32,931.32,0,0,0,329,310.17c133.66,74.83,287.8,117.5,451.95,117.5s318.3-42.67,452-117.5a931.43,931.43,0,0,0,329-310.17A767.52,767.52,0,0,1,1372.55,1148.64Z"/><path class="cls-5" d="M816.34,843.66c302.79,0,548.51,323.94,551.07,724.82h-332v125c-138.38,37.83-284.74,37.38-440.37.73V1568.48H265.27C267.83,1167.6,513.55,843.66,816.34,843.66Z"/><path class="cls-6" d="M1114.39,1568.48h-79v125c-138.38,37.83-284.74,37.38-440.37.73V1568.48H518.24c42.44-123.82,159.86-212.84,298.07-212.84S1072,1444.66,1114.39,1568.48Z"/><path class="cls-3" d="M669.86,1391.7a315.44,315.44,0,0,1,292.93,0c-46.2,20.16-95.39,31.8-146.45,31.8S716.07,1411.87,669.86,1391.7Z"/><path class="cls-3" d="M1051,1568.48h-15.56v125c-138.38,37.83-284.74,37.38-440.37.73V1568.48H581.68v-108a316.84,316.84,0,0,1,62.66-53.78h53.84a787.53,787.53,0,0,1,37.73,107.45c7.75,28.91,14.37,61.68,16.33,94.56a141.16,141.16,0,0,0,128.19,0c2-32.85,8.58-65.59,16.33-94.48a787.05,787.05,0,0,1,37.75-107.51h53.78a317,317,0,0,1,62.7,53.82Z"/><path class="cls-4" d="M816.34,829.5c155.95,0,297,83.07,399.21,217.54,101.44,133.42,164.66,317.71,166,521.38a14.1,14.1,0,0,1-14,14.16h-.06v.05H1049.59v110.88a14.17,14.17,0,0,1-11.72,14q-105,28.51-216.16,28.45-111.81,0-229.86-27.9a14.13,14.13,0,0,1-10.93-13.77h0V1582.63H265.27a14.15,14.15,0,0,1-14.15-14.15,13.56,13.56,0,0,1,.07-1.43c1.57-203.13,64.73-386.89,166-520C519.37,912.57,660.39,829.5,816.34,829.5Zm376.76,234.57C1096.17,936.57,963,857.81,816.34,857.81s-279.82,78.76-376.76,206.26c-95.56,125.69-156,298.53-160,490.26H595.06a14.15,14.15,0,0,1,14.15,14.15V1683q109.5,24.64,212.5,24.71a795.69,795.69,0,0,0,199.56-25V1568.48a14.15,14.15,0,0,1,14.16-14.15H1353.1C1349.08,1362.6,1288.66,1189.76,1193.1,1064.07Z"/><path class="cls-7" d="M1419.92,1393.7c-74-41.48-177.08-2.78-230.16,86.45s-36.09,195.18,38,236.66,177.08,2.79,230.16-86.44S1494,1435.19,1419.92,1393.7Z"/><path class="cls-6" d="M1419.92,1393.7c-21-11.74-44.23-17-68.05-16.62a158.86,158.86,0,0,0,73.4,295.91,229.15,229.15,0,0,0,32.6-42.62C1511,1541.15,1494,1435.19,1419.92,1393.7Z"/><path class="cls-8" d="M1316.45,1546c28,16.16,35.69,55.28,17.17,87.36s-56.25,45-84.25,28.81-35.69-55.28-17.17-87.36,56.24-45,84.25-28.81Zm-48.81-87.93c-15.46-8.92-36.26-1.8-46.48,15.9s-6,39.28,9.47,48.2,36.26,1.8,46.48-15.9,6-39.28-9.47-48.2ZM1417,1544.32c15.45,8.92,19.69,30.51,9.47,48.21s-31,24.81-46.48,15.89-19.69-30.5-9.47-48.2,31-24.82,46.48-15.9Zm-42.73-98.46c-18.11-10.45-42.49-2.11-54.47,18.63s-7,46,11.1,56.49,42.5,2.11,54.47-18.63S1392.38,1456.32,1374.27,1445.86Z"/><path class="cls-9" d="M1316.45,1546c28,16.16,35.69,55.28,17.17,87.36q-1.12,1.93-2.34,3.78a158.75,158.75,0,0,1-55.93-96.2c13.91-3.61,28.49-2.22,41.1,5.06Zm-43.31-34a159.24,159.24,0,0,1,6.06-41.45c5.11,10.35,4.73,23.9-2.09,35.72a42.19,42.19,0,0,1-4,5.73Zm143.86,32.3c15.45,8.92,19.69,30.51,9.47,48.21s-31,24.81-46.48,15.89-19.69-30.5-9.47-48.2,31-24.82,46.48-15.9Zm-42.73-98.46c18.11,10.46,23.08,35.75,11.1,56.49S1349,1531.43,1330.9,1521s-23.07-35.75-11.1-56.49S1356.16,1435.41,1374.27,1445.86Z"/><path class="cls-4" d="M1413,1406c-33.21-18.6-73.21-19.12-111-4.91-38.79,14.57-75.2,44.46-100,86.21q-1.38,2.33-2.87,5c-22.74,40.59-30.26,84.31-23.92,122.64,6.17,37.3,25.58,69.41,56.89,88,.74.44,1.61.94,2.59,1.49,33.21,18.61,73.22,19.12,111.06,4.92,38.78-14.57,75.19-44.46,100-86.21.18-.3.36-.58.55-.86l2.33-4.12c22.74-40.59,30.26-84.31,23.91-122.64-6.17-37.3-25.57-69.42-56.88-88-.76-.45-1.62-1-2.6-1.5Zm-121-31.33c45.46-17.08,94-16.2,134.82,6.68,1,.53,2,1.14,3.15,1.82,38.87,23.12,62.87,62.43,70.38,107.84,7.34,44.38-1.17,94.67-27.13,141-.34.6-1.21,2.09-2.66,4.54q-.24.5-.54,1c-28.24,47.47-69.89,81.54-114.41,98.27-45.46,17.07-94,16.19-134.83-6.69-1-.53-2-1.14-3.15-1.82-38.86-23.12-62.86-62.44-70.38-107.84-7.34-44.38,1.18-94.67,27.13-141,1-1.74,2-3.59,3.2-5.53C1205.83,1425.49,1247.49,1391.42,1292,1374.7Z"/><path class="cls-7" d="M212.76,1393.7c74-41.48,177.09-2.78,230.17,86.45S479,1675.33,405,1716.81s-177.09,2.79-230.17-86.44S138.73,1435.19,212.76,1393.7Z"/><path class="cls-6" d="M212.76,1393.7c21-11.73,44.23-17,68-16.62A158.86,158.86,0,0,1,207.42,1673a229.15,229.15,0,0,1-32.6-42.62C121.74,1541.15,138.73,1435.19,212.76,1393.7Z"/><path class="cls-8" d="M316.24,1546c-28,16.16-35.69,55.28-17.17,87.36s56.24,45,84.24,28.81,35.69-55.28,17.17-87.36-56.24-45-84.24-28.81Zm48.81-87.93c15.45-8.92,36.26-1.8,46.48,15.9s6,39.28-9.47,48.2-36.27,1.8-46.48-15.9-6-39.28,9.47-48.2Zm-149.36,86.23c-15.45,8.92-19.7,30.51-9.48,48.21s31,24.81,46.48,15.89,19.7-30.5,9.48-48.2-31-24.82-46.48-15.9Zm42.73-98.46c18.1-10.45,42.49-2.11,54.46,18.63s7,46-11.1,56.49-42.49,2.11-54.47-18.63S240.31,1456.32,258.42,1445.86Z"/><path class="cls-9" d="M316.24,1546c-28,16.16-35.69,55.28-17.17,87.36.74,1.29,1.52,2.54,2.32,3.77a158.71,158.71,0,0,0,55.92-96.2c-13.9-3.6-28.47-2.21-41.07,5.07Zm37.23-75.43a159.36,159.36,0,0,1,6.06,41.41,41.59,41.59,0,0,1-3.95-5.71c-6.82-11.81-7.2-25.34-2.11-35.7Zm-137.78,73.73c-15.45,8.92-19.7,30.51-9.48,48.21s31,24.81,46.48,15.89,19.7-30.5,9.48-48.2-31-24.82-46.48-15.9Zm42.73-98.46c-18.11,10.46-23.08,35.75-11.11,56.49s36.37,29.08,54.47,18.63,23.08-35.75,11.1-56.49S276.52,1435.41,258.42,1445.86Z"/><path class="cls-4" d="M205.85,1381.38c40.83-22.88,89.37-23.76,134.83-6.68,44.52,16.72,86.17,50.79,114.41,98.26.19.33.37.66.54,1,1.45,2.44,2.32,3.93,2.66,4.53,26,46.32,34.47,96.61,27.13,141-7.51,45.41-31.51,84.72-70.38,107.84-1.14.68-2.2,1.29-3.15,1.82-40.83,22.88-89.36,23.76-134.83,6.69-44.52-16.73-86.17-50.8-114.41-98.27-1.16-1.94-2.22-3.79-3.2-5.53-26-46.32-34.47-96.61-27.13-141,7.51-45.41,31.51-84.72,70.38-107.84,1.15-.68,2.2-1.29,3.15-1.82Zm124.88,19.74c-37.84-14.21-77.85-13.69-111.06,4.91-1,.56-1.85,1-2.6,1.5-31.3,18.62-50.71,50.74-56.88,88-6.34,38.33,1.18,82,23.92,122.64q1.48,2.65,2.87,5c24.84,41.75,61.25,71.64,100,86.21,37.84,14.2,77.85,13.69,111.06-4.92,1-.55,1.84-1,2.6-1.49,31.3-18.63,50.71-50.74,56.88-88,6.34-38.33-1.17-82-23.92-122.64-1.06-1.9-1.84-3.28-2.32-4.13-.19-.27-.37-.56-.55-.85C405.92,1445.58,369.51,1415.69,330.73,1401.12Z"/><path class="cls-10" d="M1203.28,1099.26c47.37,12.69,66.29,75.45,74.3,117.66,6,31.84,8.5,64.86,8.94,97.23a831.68,831.68,0,0,1-5.75,107.58,787.26,787.26,0,0,1-21.06,112c-22.18,82.76-68.11,188.31-165.71,198.92-19.82,2.15-39.84,0-59.06-5.15s-37.58-13.27-53.71-25.07c-79.22-58-66.23-172.36-44.05-255.13a788.45,788.45,0,0,1,37.76-107.51c26.15-60.68,61.91-125.57,105.17-175.77,17-19.72,37.35-39.68,60-52.81C1159.17,1100.13,1181.37,1093.39,1203.28,1099.26Z"/><path class="cls-11" d="M1262.08,1162.07c7.54,18.6,12.36,38.3,15.5,54.85,6,31.84,8.5,64.86,8.94,97.23a831.68,831.68,0,0,1-5.75,107.58c-.28,2.41-.58,4.82-.88,7.23l-17,19.57c3.83-80,2.72-158.66-27-229.51Z"/><path class="cls-5" d="M1273.89,1469.08c-3.79,21.76-8.48,43.38-14.18,64.64-22.18,82.76-68.11,188.31-165.71,198.92-19.82,2.15-39.84,0-59.06-5.15s-37.58-13.27-53.71-25.07c-30.77-22.52-47.62-53.54-55.43-87.92l8.6-53.45c40.92,144.92,258.5,168.26,328.53-114.85Z"/><path class="cls-3" d="M1203.28,1099.26c47.37,12.69,66.29,75.45,74.3,117.66q2.07,10.92,3.6,22c-12.13,10.56-26.63,17.31-42.87,17.35a53,53,0,0,1-15-2.09,55.16,55.16,0,0,1-13.92-6.24,62.91,62.91,0,0,1-10.44-8.18c-12.16-11.77-30.94-10.8-42,2.18-56.27,66.08-126,122.18-203.92,153.86,6.6-19,13.94-37.67,21.86-56,26.15-60.68,61.91-125.57,105.17-175.77,17-19.72,37.35-39.68,60-52.81C1159.17,1100.13,1181.37,1093.39,1203.28,1099.26Z"/><path class="cls-6" d="M1258.62,1537.73C1236,1619.86,1190,1722.2,1094,1732.64c-19.82,2.15-39.84,0-59.06-5.15s-37.58-13.27-53.71-25.07c-63.31-46.34-67.72-128.69-55.62-202.15A202.65,202.65,0,0,1,997,1487.33c183.36,0,169.58,211.8,246.91,50.4Z"/><path class="cls-3" d="M1258.62,1537.73l-.18.66c-.3,1.07-.59,2.13-.9,3.21-.36,1.29-.73,2.59-1.11,3.89h0c-.37,1.3-.76,2.61-1.14,3.91l0,.07c-.39,1.29-.77,2.58-1.17,3.87l0,.14-.44,1.43c-.25.83-.51,1.67-.77,2.51l0,.08c-.39,1.25-.79,2.51-1.19,3.77l0,.09-.87,2.67-.42,1.31c-.27.82-.54,1.63-.82,2.44l-.55,1.65c-.23.69-.47,1.38-.71,2.08s-.44,1.3-.67,2-.51,1.46-.77,2.18l-.65,1.86c-.25.68-.49,1.36-.74,2l-.75,2.07-.71,1.92-.79,2.1c-.26.71-.54,1.41-.8,2.12l-.74,1.91-.88,2.25-.7,1.77c-.3.74-.61,1.49-.91,2.24l-.74,1.82c-.3.74-.61,1.48-.92,2.22l-.76,1.8c-.3.73-.62,1.46-.93,2.18l-.79,1.85-1,2.21-.79,1.77c-.31.7-.63,1.4-1,2.1l-.9,2-1,2c-.29.62-.57,1.23-.87,1.84s-.67,1.4-1,2.1l-.93,1.92c-.33.67-.66,1.34-1,2l-.94,1.87c-.35.69-.7,1.38-1.06,2.07s-.64,1.24-1,1.86-.69,1.31-1,2l-1,1.87-1.14,2.07-1,1.76-1.13,2c-.34.61-.69,1.22-1,1.82s-.75,1.29-1.13,1.94l-1.1,1.84c-.37.62-.74,1.24-1.12,1.86s-.75,1.24-1.14,1.86-.77,1.23-1.16,1.85-.76,1.2-1.14,1.81l-1.2,1.85c-.39.59-.78,1.19-1.18,1.78s-.79,1.19-1.19,1.79l-1.24,1.81-1.21,1.74c-.42.59-.83,1.18-1.25,1.76l-1.29,1.79-1.22,1.65-1.33,1.78c-.42.55-.84,1.11-1.27,1.66l-1.34,1.72c-.42.54-.85,1.08-1.28,1.61s-.93,1.15-1.39,1.72-.89,1.07-1.33,1.6l-1.39,1.65c-.45.52-.89,1-1.35,1.56s-1,1.1-1.44,1.64-.93,1-1.4,1.56l-1.41,1.53-1.49,1.59c-.46.49-.93,1-1.4,1.46s-1,1-1.54,1.57-1,1-1.44,1.43-1,1-1.51,1.47l-1.52,1.45-1.53,1.42-1.55,1.41-1.54,1.35-1.61,1.4c-.52.45-1,.88-1.58,1.32l-1.62,1.33-1.63,1.3-1.63,1.27c-.55.43-1.11.84-1.67,1.26s-1.11.83-1.67,1.23-1.12.8-1.69,1.2l-1.7,1.19c-.57.4-1.15.78-1.74,1.17l-1.71,1.13-1.8,1.13-1.73,1.07-1.84,1.09c-.57.33-1.15.68-1.73,1s-1.26.7-1.9,1.05-1.18.65-1.78,1-1.25.64-1.88,1-1.22.63-1.84.93-1.26.6-1.89.9-1.27.61-1.91.89l-1.85.81-2,.87-2,.79c-.64.25-1.28.52-1.93.76s-1.41.52-2.12.77l-1.87.68c-.73.25-1.47.48-2.2.72s-1.24.41-1.87.6-1.49.44-2.23.66-1.27.38-1.92.55-1.61.42-2.41.63c-.59.15-1.18.31-1.77.45-.89.22-1.8.4-2.7.6l-1.59.36c-.81.17-1.63.31-2.44.46-.65.12-1.29.26-1.95.37-.89.16-1.81.29-2.71.43l-1.69.26c-1.48.22-3,.4-4.5.57-19.82,2.15-39.84,0-59.06-5.15s-37.58-13.27-53.71-25.07c-1-.71-1.94-1.44-2.89-2.17l-.12-.1c-.9-.69-1.78-1.4-2.66-2.1l-.28-.24q-1.26-1-2.49-2.07l-.21-.19c-.82-.7-1.62-1.4-2.41-2.12l-.35-.31c-.75-.69-1.5-1.38-2.24-2.08l-.32-.31c-.73-.69-1.45-1.4-2.16-2.1l-.37-.37c-.68-.69-1.36-1.39-2-2.09l-.41-.43c-.66-.7-1.31-1.41-1.95-2.12l-.36-.4c-.64-.7-1.26-1.41-1.88-2.13l-.39-.46c-.61-.71-1.2-1.42-1.79-2.14l-.38-.47c-.59-.72-1.16-1.45-1.72-2.17l-.41-.53c-.54-.71-1.08-1.42-1.61-2.14l-.43-.58c-.52-.72-1-1.44-1.54-2.16l-.38-.55c-.51-.73-1-1.45-1.49-2.19l-.4-.6c-.49-.74-1-1.49-1.44-2.24l-.35-.55c-.47-.75-.93-1.51-1.38-2.27l-.49-.82q-.57-1-1.11-1.92l-.66-1.18c-.35-.62-.69-1.24-1-1.87l-.54-1-1-1.89-.59-1.19-.9-1.83-.56-1.19c-.28-.6-.56-1.2-.83-1.8l-.59-1.32c-.27-.6-.53-1.2-.79-1.8l-.5-1.18-.81-2-.47-1.18c-.24-.61-.47-1.23-.71-1.84l-.49-1.32c-.22-.59-.43-1.17-.64-1.77l-.48-1.36-.6-1.76-.47-1.43c-.19-.58-.37-1.16-.55-1.75l-.46-1.47-.51-1.72c-.17-.58-.34-1.17-.5-1.75l-.4-1.44c-.18-.66-.36-1.32-.53-2l-.32-1.26c-.16-.62-.31-1.23-.46-1.85l-.33-1.39-.3-1.29,8.6-53.45c31.23,110.6,165.33,150.36,258.24,37.17,14.13,1.69,28.89-13.69,51.31-60.49Z"/><path class="cls-10" d="M429.4,1099.26c21.92-5.87,44.11.87,63.19,11.94,22.63,13.13,43,33.09,60,52.81,43.25,50.2,79,115.09,105.17,175.77a788.4,788.4,0,0,1,37.75,107.51c22.18,82.77,35.17,197.15-44,255.13-16.13,11.8-34.46,19.91-53.71,25.07s-39.23,7.3-59,5.15C441.09,1722,395.15,1616.48,373,1533.72a790.07,790.07,0,0,1-21.06-112,831.68,831.68,0,0,1-5.75-107.58c.44-32.37,2.9-65.39,8.94-97.23C363.11,1174.71,382,1112,429.4,1099.26Z"/><path class="cls-11" d="M352.79,1429q-.45-3.62-.88-7.23a831.68,831.68,0,0,1-5.75-107.58c.44-32.37,2.9-65.39,8.94-97.23,3.14-16.55,8-36.25,15.51-54.85l26.12,57c-29.7,70.85-30.81,149.51-27,229.51Z"/><path class="cls-5" d="M706.66,1615.45c-7.91,34-24.73,64.66-55.21,87-16.13,11.8-34.46,19.91-53.71,25.07s-39.23,7.3-59,5.15C441.09,1722,395.15,1616.48,373,1533.72c-5.54-20.71-10.14-41.75-13.88-62.93l10.67-22.26c70,283.12,287.61,259.78,328.52,114.86Z"/><path class="cls-3" d="M429.4,1099.26c21.92-5.87,44.11.87,63.19,11.94,22.63,13.13,43,33.09,60,52.81,43.25,50.2,79,115.09,105.17,175.77,7.91,18.36,15.25,37.07,21.86,56C601.7,1364.14,532,1308,475.68,1242c-11.05-13-29.84-14-42-2.18a62.91,62.91,0,0,1-10.44,8.18,55.16,55.16,0,0,1-13.92,6.24,53,53,0,0,1-14.95,2.09c-16.24,0-30.73-6.79-42.87-17.35q1.54-11.07,3.6-22C363.11,1174.71,382,1112,429.4,1099.26Z"/><path class="cls-6" d="M707.08,1500.27c12.1,73.46,7.68,155.81-55.63,202.15-16.13,11.8-34.46,19.91-53.71,25.07s-39.23,7.3-59,5.15c-96-10.44-142-112.78-164.63-194.91h14.68c77.32,161.4,63.55-50.4,246.91-50.4A202.65,202.65,0,0,1,707.08,1500.27Z"/><path class="cls-3" d="M694.46,1650.58l-.7,1.44-.91,1.8-.61,1.18-1,1.91-.53,1c-.33.6-.67,1.21-1,1.81l-.7,1.21c-.27.47-.55.94-.83,1.41l-.93,1.52-.76,1.22-1.05,1.63c-.27.42-.55.84-.83,1.25s-.69,1-1.05,1.56l-.83,1.19q-.59.84-1.2,1.68l-.75,1c-.48.65-1,1.29-1.46,1.93l-.49.64-1.64,2.07-.47.57c-.56.69-1.13,1.36-1.7,2l-.46.54-1.8,2-.46.51c-.62.68-1.24,1.36-1.88,2l-.44.47c-.65.68-1.31,1.36-2,2l-.42.42c-.7.7-1.41,1.39-2.13,2.08l-.32.3c-.73.69-1.46,1.37-2.21,2l-.41.37c-.76.68-1.53,1.36-2.31,2l-.3.26c-.8.69-1.62,1.37-2.44,2l-.31.25c-.86.71-1.74,1.4-2.63,2.09l-.15.11c-1,.73-1.91,1.46-2.88,2.17-16.13,11.8-34.46,19.91-53.71,25.07s-39.23,7.3-59,5.15c-1.52-.17-3-.36-4.51-.57l-1.68-.26c-.91-.14-1.82-.27-2.72-.43-.65-.11-1.29-.25-1.94-.37-.82-.15-1.64-.29-2.45-.46l-1.59-.36-2.7-.6c-.59-.14-1.17-.3-1.76-.45-.81-.21-1.62-.41-2.42-.63-.64-.17-1.28-.37-1.91-.55s-1.5-.43-2.24-.66l-1.86-.6c-.74-.24-1.48-.47-2.2-.72l-1.88-.68c-.71-.25-1.42-.5-2.12-.77s-1.29-.51-1.93-.76l-2-.79c-.68-.28-1.34-.58-2-.87s-1.24-.53-1.85-.81-1.28-.59-1.92-.89l-1.89-.9c-.62-.3-1.23-.62-1.84-.93s-1.26-.63-1.88-1-1.19-.64-1.78-1-1.27-.69-1.89-1.05-1.16-.67-1.74-1l-1.84-1.09-1.73-1.07-1.8-1.13-1.71-1.13-1.74-1.17-1.7-1.19c-.56-.4-1.13-.79-1.69-1.2s-1.11-.82-1.67-1.23-1.12-.83-1.67-1.26l-1.63-1.27-1.63-1.3-1.62-1.33c-.52-.44-1.05-.87-1.57-1.32s-1.08-.93-1.62-1.4l-1.53-1.35c-.52-.46-1-.94-1.55-1.41l-1.54-1.42-1.52-1.45c-.5-.49-1-1-1.51-1.47L451.3,1689c-.51-.52-1-1-1.54-1.57s-.93-1-1.4-1.46l-1.49-1.59c-.47-.5-.94-1-1.4-1.53l-1.41-1.56-1.44-1.64-1.35-1.56-1.39-1.65c-.44-.53-.89-1.06-1.32-1.6s-.93-1.14-1.39-1.72l-1.29-1.61-1.34-1.72-1.27-1.66-1.33-1.78-1.22-1.65-1.29-1.79c-.42-.58-.83-1.17-1.25-1.76L427,1659.4l-1.23-1.81-1.2-1.79-1.18-1.78-1.19-1.85-1.15-1.81c-.39-.62-.78-1.23-1.16-1.85l-1.14-1.86-1.12-1.86c-.37-.61-.73-1.22-1.09-1.84l-1.14-1.94c-.35-.6-.69-1.21-1-1.82s-.75-1.33-1.12-2l-1-1.76c-.38-.69-.76-1.38-1.13-2.07s-.67-1.24-1-1.87-.7-1.3-1-2-.65-1.24-1-1.86l-1.06-2.07c-.32-.62-.63-1.25-.94-1.87l-1-2c-.32-.64-.63-1.28-.94-1.92s-.68-1.4-1-2.1l-.87-1.84-1-2-.9-2c-.32-.7-.64-1.4-.95-2.1l-.79-1.77c-.32-.74-.65-1.47-1-2.21l-.8-1.85-.93-2.18c-.25-.6-.5-1.2-.76-1.8s-.62-1.48-.92-2.22l-.74-1.82c-.3-.75-.61-1.5-.91-2.24l-.69-1.77c-.3-.75-.6-1.5-.89-2.25s-.49-1.27-.73-1.91l-.81-2.12-.79-2.1c-.23-.64-.47-1.28-.71-1.92l-.75-2.07c-.24-.67-.49-1.35-.73-2l-.66-1.86c-.25-.72-.51-1.45-.76-2.18s-.45-1.31-.68-2-.48-1.39-.71-2.08l-.55-1.65-.81-2.44L382,1564l-.87-2.67,0-.09c-.4-1.26-.8-2.52-1.19-3.77l0-.08-.78-2.51-.44-1.43,0-.14c-.39-1.29-.78-2.58-1.16-3.87l0-.07c-.39-1.3-.77-2.61-1.15-3.91h0c-.38-1.3-.74-2.6-1.11-3.89-.3-1.08-.6-2.14-.89-3.21l-.19-.66h14.68c21.48,44.83,35.92,60.84,49.52,60.62,93,115.91,228.6,76.35,260-35l8.38,52.06A168.29,168.29,0,0,1,694.46,1650.58Z"/><path class="cls-4" d="M425.76,1085.6a81.57,81.57,0,0,1,36.59-1.07c13.22,2.5,25.83,7.79,37.31,14.45a206.27,206.27,0,0,1,34.49,25.7,340,340,0,0,1,29.1,30.09c20.79,24.13,39.86,51.5,57,80.13a852.78,852.78,0,0,1,50.5,99.29c7.68,17.82,14.92,36.26,21.59,55.26,6.34,18,12,36.16,16.83,54.19,11.43,42.66,20.48,93.59,16.44,141.67-4.19,49.93-22.33,96.68-65.8,128.5a162.26,162.26,0,0,1-27.32,16.06,193.5,193.5,0,0,1-63.64,17.1,161.89,161.89,0,0,1-31.65-.29c-53.58-5.82-92.66-37.24-121.25-78.37-27.56-39.64-45.19-88.29-56.62-131-4.85-18.09-9-36.6-12.54-55.37-3.69-19.61-6.63-39.21-8.91-58.66q-3.18-27.19-4.71-55.32-1.44-26.74-1.09-54c.22-17,.95-33.73,2.36-49.87,1.45-16.54,3.65-33.2,6.8-49.8,4.2-22.14,11.3-49.75,23.71-73.77,13.31-25.75,32.62-47.39,60.82-55Zm31.4,26.69a53.7,53.7,0,0,0-24.11.63c-19.17,5.13-33,21.22-43,40.57-10.89,21.09-17.25,46-21.06,66a474.3,474.3,0,0,0-6.35,47c-1.43,16.41-2.16,32.36-2.37,47.77-.23,17.21.15,34.66,1.09,52.25s2.5,35.58,4.61,53.55c2.23,19.07,5.07,38,8.58,56.67q5,26.68,12.09,53.28c10.75,40.1,27.17,85.62,52.53,122.1,24.32,35,57,61.64,101,66.42a135.12,135.12,0,0,0,26.23.19,167.67,167.67,0,0,0,54.13-14.45A134.72,134.72,0,0,0,643.1,1691c35.75-26.16,50.73-65.59,54.3-108,3.73-44.29-4.81-91.94-15.55-132q-7.14-26.62-16.17-52.2c-6.23-17.74-13.26-35.58-20.93-53.38a823.33,823.33,0,0,0-48.73-96c-16.34-27.3-34.45-53.32-54.11-76.14a313.07,313.07,0,0,0-26.67-27.66,177.94,177.94,0,0,0-29.73-22.17c-9-5.19-18.59-9.28-28.35-11.12Zm749.77-26.69c28.2,7.56,47.51,29.2,60.81,55,12.41,24,19.52,51.63,23.72,73.77,3.15,16.6,5.34,33.26,6.79,49.8,1.41,16.14,2.14,32.9,2.37,49.87q.36,27.24-1.09,54-1.5,28.08-4.72,55.32c-2.27,19.45-5.22,39.05-8.91,58.66-3.53,18.77-7.68,37.28-12.54,55.37-11.42,42.66-29.06,91.31-56.61,131-28.59,41.13-67.67,72.55-121.26,78.37a161.88,161.88,0,0,1-31.65.29,193.67,193.67,0,0,1-63.64-17.1,162.17,162.17,0,0,1-27.31-16.06c-43.48-31.82-61.61-78.57-65.81-128.5-4-48.08,5-99,16.44-141.67,4.84-18,10.49-36.14,16.83-54.19q10-28.5,21.6-55.26a849.66,849.66,0,0,1,50.5-99.29c17.13-28.63,36.19-56,57-80.13a340,340,0,0,1,29.1-30.09A206.27,206.27,0,0,1,1133,1099c11.48-6.66,24.09-12,37.31-14.45a81.61,81.61,0,0,1,36.6,1.07Zm35.71,67.89c-10-19.35-23.83-35.44-43-40.57a53.65,53.65,0,0,0-24.1-.63c-9.77,1.84-19.39,5.93-28.36,11.12a178.35,178.35,0,0,0-29.73,22.17,313,313,0,0,0-26.66,27.66c-19.66,22.82-37.78,48.84-54.12,76.14a824.9,824.9,0,0,0-48.73,96c-7.67,17.8-14.7,35.64-20.93,53.38-6,17-11.41,34.45-16.16,52.2-10.75,40.11-19.28,87.76-15.56,132,3.57,42.45,18.56,81.88,54.3,108a134.81,134.81,0,0,0,22.57,13.3,167.52,167.52,0,0,0,54.12,14.45,135.11,135.11,0,0,0,26.23-.19c44-4.78,76.71-31.44,101-66.42,25.35-36.48,41.78-82,52.52-122.1q7.11-26.55,12.1-53.28c3.5-18.65,6.34-37.6,8.57-56.67,2.11-18,3.67-35.86,4.61-53.55s1.32-35,1.09-52.25c-.21-15.41-.93-31.36-2.37-47.77a474.3,474.3,0,0,0-6.35-47C1259.89,1199.45,1253.53,1174.58,1242.64,1153.49Z"/><path class="cls-1" d="M1275.82,978.18c-54.31,172.74-239.42,377.46-459.48,377.46S411.17,1150.92,356.86,978.18Z"/><path class="cls-2" d="M1214.23,1106.66c-85,131.83-231.43,249-397.89,249s-312.91-117.15-397.88-249h8.45C517.2,1224.59,658.05,1323,816.34,1323s299.14-98.41,389.44-216.34Z"/><path class="cls-3" d="M1269.56,996.61a507.3,507.3,0,0,1-20.59,48.47c-63.6,108.58-233.28,186.25-432.63,186.25s-369-77.67-432.63-186.25a507.3,507.3,0,0,1-20.59-48.47,182.26,182.26,0,0,1-4-18.43h914.44A182.26,182.26,0,0,1,1269.56,996.61Z"/><path class="cls-4" d="M1289,983.35c-30.32,95.69-99.61,200.75-192.4,277-79.31,65.15-175.87,109.47-280.26,109.47s-201-44.32-280.26-109.47c-93.1-76.48-162.54-182-192.71-277.95a14.13,14.13,0,0,1,9.29-17.69,14.28,14.28,0,0,1,4.2-.64v0h919A14.15,14.15,0,0,1,1289,983.35Zm-210.31,255.19c82.88-68.08,146-160.09,177.4-246.2H376.59c31.37,86.11,94.53,178.12,177.41,246.2,74.58,61.27,165,103,262.34,103S1004.11,1299.81,1078.69,1238.54Z"/><path class="cls-12" d="M1256.78,1018.11a61.29,61.29,0,0,1,14.84,6.18c35.82,20.8,43.1,69.25,33.19,106.27s-40.45,75.33-81.87,75.43a60.86,60.86,0,0,1-30.79-8.24c-35.82-20.8-43.1-69.26-33.18-106.27s40.45-75.33,81.87-75.44A61.28,61.28,0,0,1,1256.78,1018.11Z"/><path class="cls-13" d="M1256.78,1018.11a61.29,61.29,0,0,1,14.84,6.18,67.63,67.63,0,0,1,22.55,21.45,121.47,121.47,0,0,1-4,33.89c-9.92,37-40.45,75.33-81.87,75.44a61,61,0,0,1-30.79-8.25,67.63,67.63,0,0,1-22.55-21.45,121.43,121.43,0,0,1,4-33.89c9.91-37,40.45-75.33,81.87-75.44A61.28,61.28,0,0,1,1256.78,1018.11Z"/><path class="cls-4" d="M1260.43,1004.46a75.34,75.34,0,0,1,18.27,7.61c19.92,11.57,32.43,30,38.91,50.7,7.2,23.07,6.82,49.15.85,71.43s-18.69,45.08-36.48,61.47c-15.94,14.69-36,24.36-59,24.42a75.32,75.32,0,0,1-9.88-.62l-.46-.07a77.08,77.08,0,0,1-9.26-1.82,76.26,76.26,0,0,1-9.38-3.2,74.13,74.13,0,0,1-8.88-4.42c-19.93-11.57-32.44-30-38.91-50.7-7.2-23.06-6.83-49.15-.86-71.43s18.7-45.08,36.48-61.46c16-14.69,36-24.37,59-24.43a75.06,75.06,0,0,1,9.87.62l.47.07a75,75,0,0,1,9.25,1.83Zm-1.45,29.29a49.41,49.41,0,0,0-11.52-3.16l-.4,0a48.34,48.34,0,0,0-6.22-.4c-15.21,0-28.81,6.78-39.92,17-13.72,12.64-23.6,30.44-28.3,48s-5,37.9.53,55.73c4.5,14.39,12.91,27,26.08,34.67a48.85,48.85,0,0,0,5.57,2.75,46.61,46.61,0,0,0,5.84,2,48.17,48.17,0,0,0,5.67,1.19l.4,0a45.24,45.24,0,0,0,6.23.4c15.2,0,28.8-6.78,39.91-17,13.73-12.65,23.6-30.45,28.3-48s5-37.91-.53-55.73c-4.49-14.4-12.9-27-26.08-34.67A46.4,46.4,0,0,0,1259,1033.75Z"/><path class="cls-12" d="M375.9,1018.11a61.35,61.35,0,0,1,16-2.07c41.42.11,71.95,38.43,81.87,75.44s2.63,85.47-33.19,106.27a60.86,60.86,0,0,1-30.78,8.24c-41.42-.1-72-38.42-81.87-75.43s-2.64-85.47,33.18-106.27A61.46,61.46,0,0,1,375.9,1018.11Z"/><path class="cls-13" d="M375.9,1018.11a61.35,61.35,0,0,1,16-2.07c41.42.11,71.95,38.43,81.87,75.44a121.43,121.43,0,0,1,4,33.89,67.63,67.63,0,0,1-22.55,21.45,61,61,0,0,1-30.79,8.25c-41.42-.11-71.95-38.43-81.87-75.44a121.47,121.47,0,0,1-4-33.89,67.63,67.63,0,0,1,22.55-21.45A61.46,61.46,0,0,1,375.9,1018.11Z"/><path class="cls-4" d="M372.25,1004.46a74.43,74.43,0,0,1,9.72-1.89h0a75.21,75.21,0,0,1,9.88-.62c23.06.06,43.1,9.74,59,24.43,17.78,16.38,30.51,39.17,36.48,61.46s6.35,48.37-.86,71.43c-6.47,20.73-19,39.13-38.9,50.7a75,75,0,0,1-8.89,4.42,72,72,0,0,1-19.1,5.08h0a75.06,75.06,0,0,1-9.87.62c-23.07-.06-43.1-9.73-59.05-24.42-17.78-16.39-30.51-39.17-36.48-61.47s-6.34-48.36.86-71.43c6.47-20.72,19-39.13,38.9-50.7a75.34,75.34,0,0,1,18.27-7.61Zm13.32,26.08a49.14,49.14,0,0,0-11.86,3.21,46.54,46.54,0,0,0-5.57,2.76c-13.17,7.65-21.59,20.27-26.08,34.67-5.57,17.82-5.23,38.19-.53,55.73s14.58,35.32,28.3,48c11.11,10.23,24.71,17,39.92,17a45,45,0,0,0,6.22-.4H416a45.6,45.6,0,0,0,6-1.23,46.76,46.76,0,0,0,5.85-2,47.9,47.9,0,0,0,5.56-2.75c13.17-7.65,21.59-20.28,26.08-34.67,5.57-17.83,5.23-38.2.53-55.73s-14.58-35.33-28.3-48c-11.11-10.24-24.71-17-39.91-17a48.61,48.61,0,0,0-6.23.4h-.05Z"/><path class="cls-14" d="M401.48,1044.06c11.47-6.62,29.34,2.86,39.92,21.19s9.85,38.54-1.62,45.16-29.34-2.87-39.92-21.19S390,1050.68,401.48,1044.06Z"/><path class="cls-14" d="M1231.2,1044.06c-11.46-6.62-29.34,2.86-39.91,21.19s-9.86,38.54,1.61,45.16,29.34-2.87,39.92-21.19S1242.67,1050.68,1231.2,1044.06Z"/><g class="cls-15"><path class="cls-16" d="M1309.24,49.82c-11.52-3.66-23.74-3.53-36.58,1-160,56.37-268.39,209.72-315.46,288.87A48.1,48.1,0,0,1,888,354.26h0S1010.41,94.08,1230,16.68C1260.4,6,1287.48,19.87,1309.24,49.82Z"/><path class="cls-17" d="M921.45,364.52a50,50,0,0,1-34.4-8.89l-1.15-.81.6-1.28c1.23-2.61,125.2-261.71,343-338.45C1259,4.72,1287,16.38,1310.61,48.83l3,4.16-4.9-1.56c-11.41-3.63-23.35-3.3-35.51,1-157.64,55.55-264.75,204.38-314.57,288.14a49.81,49.81,0,0,1-32.42,23.22C924.65,364.08,923.05,364.34,921.45,364.52Zm-31.27-10.83a46.66,46.66,0,0,0,35.35,6.76,45.85,45.85,0,0,0,30.23-21.64c50-84.16,157.7-233.7,316.34-289.6a58.87,58.87,0,0,1,32.84-2.3c-22-28.14-47.6-38-74.34-28.63C1022.05,91.76,899.92,333.77,890.18,353.69Z"/></g><path class="cls-18" d="M1194.53,488c-17.91-36.34-71-77.19-115.56-106.82-40.23-26.75-49-82-19.6-120.31,51.77-67.44,116.11-115.53,159.9-143.5,25.94-16.58,60.4-1.61,66.16,28.64A470,470,0,0,1,1279,348.17c-22.74,90.13-79.44,138.45-79.44,138.45"/><path class="cls-17" d="M1193,488.79c-18-36.53-72.46-77.9-115-106.17A83.74,83.74,0,0,1,1041.45,326,85.92,85.92,0,0,1,1058,259.88c51.64-67.26,115.69-115.38,160.33-143.9a45.24,45.24,0,0,1,68.73,29.75,472.54,472.54,0,0,1-6.45,202.85c-22.61,89.62-79.41,138.84-80,139.33l-2.19-2.57c.57-.48,56.57-49.06,78.91-137.58a469.42,469.42,0,0,0,6.41-201.4,41.93,41.93,0,0,0-24.61-30.68,41.15,41.15,0,0,0-39,3.15c-44.4,28.37-108.12,76.23-159.46,143.1a82.5,82.5,0,0,0-15.93,63.55,80.39,80.39,0,0,0,35.12,54.33c42.86,28.5,97.81,70.29,116.14,107.49Z"/><path class="cls-18" d="M1153.75,382.81a297.68,297.68,0,0,1-14.38,42.95c-19.28-16.12-40.7-31.43-60.39-44.53-40.23-26.75-49-82-19.63-120.34s62.92-70.41,94.41-96.11a43.18,43.18,0,0,1,6.46,15.93A470.39,470.39,0,0,1,1153.75,382.81Z"/><path class="cls-17" d="M1140,428.52l-1.75-1.46a692,692,0,0,0-60.24-44.42,83.8,83.8,0,0,1-36.59-56.57,86,86,0,0,1,16.55-66.2c26.06-34,57.92-66.39,94.68-96.4l1.44-1.17,1,1.54a44.49,44.49,0,0,1,6.71,16.56,473,473,0,0,1-6.48,202.82h0a302.09,302.09,0,0,1-14.46,43.19Zm13.31-261.23c-35.94,29.5-67.11,61.33-92.66,94.63a82.65,82.65,0,0,0-15.9,63.6,80.47,80.47,0,0,0,35.12,54.31A704,704,0,0,1,1138.69,423a296.78,296.78,0,0,0,13.42-40.6h0A469.41,469.41,0,0,0,1158.56,181,41.18,41.18,0,0,0,1153.35,167.29Z"/><g class="cls-15"><path class="cls-16" d="M324.91,47.15c11.54-3.6,23.76-3.4,36.57,1.18C521.14,105.57,628.73,259.5,675.37,338.91a48.1,48.1,0,0,0,69.09,15h0S623.5,93,404.29,14.44C374,3.6,346.83,17.32,324.91,47.15Z"/><path class="cls-17" d="M722.28,364a49.67,49.67,0,0,1-48.37-24.21c-49.36-84-155.66-233.44-313-289.84-12.13-4.33-24.07-4.72-35.5-1.15L320.5,50.3l3.05-4.14c23.75-32.33,51.87-43.84,81.31-33.3C622.21,90.78,744.78,350.54,746,353.16l.6,1.28-1.16.81A50,50,0,0,1,722.28,364ZM335,43.31a60.08,60.08,0,0,1,27.05,3.43c158.34,56.77,265.18,206.88,314.77,291.31a45.85,45.85,0,0,0,30.11,21.8,46.59,46.59,0,0,0,35.39-6.57c-9.64-20-130.49-262.64-338.6-337.25-26.7-9.55-52.37.21-74.49,28.24A56.44,56.44,0,0,1,335,43.31Z"/></g><path class="cls-18" d="M437.24,486c18.11-36.25,71.42-76.81,116.14-106.2,40.37-26.52,49.46-81.73,20.25-120.2-51.4-67.71-115.48-116.16-159.12-144.37-25.85-16.71-60.39-1.93-66.32,28.29a470.24,470.24,0,0,0,5.34,202.15c22.25,90.25,78.69,138.88,78.69,138.88"/><path class="cls-17" d="M438.75,486.74l-3-1.51c18.54-37.09,73.71-78.58,116.73-106.85a80.41,80.41,0,0,0,35.41-54.14,82.49,82.49,0,0,0-15.58-63.63c-51-67.16-114.44-115.36-158.69-144a41.18,41.18,0,0,0-39-3.36,41.91,41.91,0,0,0-24.77,30.55,469,469,0,0,0,5.32,201.43c21.85,88.64,77.59,137.52,78.15,138l-2.2,2.56c-.57-.49-57.1-50-79.23-139.75a472.62,472.62,0,0,1-5.35-202.89,45.23,45.23,0,0,1,68.89-29.37C459.91,142.56,523.7,191,575,258.57a85.89,85.89,0,0,1,16.23,66.24,83.74,83.74,0,0,1-36.89,56.39C511.64,409.24,457,450.31,438.75,486.74Z"/><path class="cls-18" d="M478.59,381a298.63,298.63,0,0,0,14.14,43,700.57,700.57,0,0,1,60.64-44.2c40.37-26.53,49.45-81.73,20.28-120.24S511.11,188.82,479.77,163a43.09,43.09,0,0,0-6.55,15.9A470.4,470.4,0,0,0,478.59,381Z"/><path class="cls-17" d="M492.05,426.76l-.88-2.11A301.86,301.86,0,0,1,477,381.38h0a472.9,472.9,0,0,1-5.38-202.86,44.35,44.35,0,0,1,6.8-16.51l1-1.54,1.43,1.18c36.6,30.21,68.28,62.81,94.15,96.9a86,86,0,0,1,16.19,66.3,83.76,83.76,0,0,1-36.89,56.37,693.85,693.85,0,0,0-60.48,44.09Zm-11.89-261.3a41.36,41.36,0,0,0-5.28,13.71,469.45,469.45,0,0,0,5.35,201.4h0a297.09,297.09,0,0,0,13.2,40.68,705.3,705.3,0,0,1,59-42.85,80.44,80.44,0,0,0,35.42-54.12,82.6,82.6,0,0,0-15.56-63.69C546.93,227.16,515.94,195.17,480.16,165.46Z"/><path class="cls-19" d="M1367.3,816.24c-41.75-21.31-76.64-92.07-86-127.42-5.4-20.43-18.54-60.78-28.68-91.26C1449.86,432.65,1378.93-30.77,1240.42,18,1084,73.15,976.91,221,928.22,301.48,864.1,286.67,817.83,290,817.83,290s-47.44-3.64-112.93,11.49c-48.1-80.66-154.51-229.6-311-285.7C255.15-34,181.68,432.63,380.72,597c-10.21,30.19-23.14,69.3-28.53,89.29-9.56,35.3-44.83,105.87-86.73,127-24.7,12.43-25.95,33-9,48.46,10.86,9.92,29.25,17.79,53.69,20,1.93.21,3.95.33,6,.45,0,0,0,0-.12.08h0c-1.49,1-13.87,8.86-45.59,29.69-31.06,20.44-6.18,47.79,45.93,75.28s119.07,91.25,132.83,100.69c8.05,5.54,51.11,40.27,132.6,68.29,58,20,135.45,36.55,233.63,36.82h0c236.11.64,353-93.72,366.8-103.12s81.14-72.8,133.4-100,77.26-54.42,46.28-75c-33.79-22.48-45.57-30-45.57-30,2-.08,3.9-.22,5.77-.38,24.57-2.1,43.09-9.86,54-19.75C1393.1,849.37,1392,828.82,1367.3,816.24Z"/><g class="cls-20"><path class="cls-16" d="M1240.29,61.09c-132,46.52-218.49,172.51-271.53,259.11a73.52,73.52,0,0,1-73,34.49,642.33,642.33,0,0,0-78-6.55,634.22,634.22,0,0,0-80.06,6.37A73.4,73.4,0,0,1,664.33,320C611.83,233.06,525.91,106.17,393.8,58.79,320.12,32.38,264.88,151.46,259,293.62c-5.8-161.61,53.27-311.25,134.94-282,156.48,56.07,262.9,205,311,285.7,65.49-15.13,112.94-11.48,112.94-11.48s46.26-3.28,110.35,11.54C976.92,216.86,1084,69.07,1240.42,14c81.82-28.85,140.08,121.11,133.4,282.68C1368.7,154.46,1314.11,35.08,1240.29,61.09Z"/></g><path class="cls-21" d="M312.76,882c1.08.09,2.22.15,3.33.21l-.12.09h0c-.2.14-.6.36-1.2.76C314.07,882.68,313.42,882.31,312.76,882Z"/><path class="cls-17" d="M314.87,885l-.88-.44-1.28-.68-8.06-4.25,8.25.68c1,.08,2,.14,3,.19l3.77.21-3.2,3.26h-.05Z"/><path class="cls-16" d="M1315.58,989.94c-52.26,27.17-119.59,90.6-133.4,100S1051.49,1193.67,815.38,1193h0c-98.18-.27-175.64-16.85-233.63-36.82-81.49-28-124.55-62.75-132.6-68.29-13.76-9.44-80.75-73.24-132.83-100.69s-77-54.84-45.93-75.28c31.72-20.83,44.1-28.73,45.59-29.69h0c.09-.08.12-.08.12-.08-2-.12-4-.24-6-.45,7.8-2.59,16.44-5,26-7.26,77.39-18,176.15,89.1,313.15,36,105.16-40.73,62.06-287.25,90-351.26l.86-1.93c29.74-66.18,124.16-65.92,153.54.41.31.66.59,1.28.87,1.94,27.63,64.17-16.81,310.44,88.1,351.74,136.74,53.81,236.08-52.79,313.37-34.34,9.57,2.28,18.2,4.8,26,7.44-1.87.16-3.81.3-5.77.38,0,0,11.78,7.53,45.57,30C1392.84,935.52,1367.81,962.74,1315.58,989.94Z"/><g class="cls-15"><path class="cls-22" d="M1315.59,990c-52.27,27.17-119.62,90.61-133.41,100S1051.51,1193.67,815.4,1193h0c-98.19-.27-175.64-16.85-233.62-36.83-81.49-28-124.56-62.75-132.62-68.27-13.74-9.44-80.75-73.24-132.84-100.69s-77-54.87-45.9-75.3q7.33-4.83,13.35-8.7c112.42,88.11,308.44,212.67,531.84,213.28s420.13-122.89,533-210.43l13.26,8.81C1392.83,935.5,1367.83,962.75,1315.59,990Z"/></g><path class="cls-22" d="M929.52,313.42a11.74,11.74,0,0,1-4-.24C864.11,299,819.1,301.87,818.65,301.91a11.63,11.63,0,0,1-1.77,0c-.44,0-46.6-3.28-109.27,11.22a12,12,0,1,1-5.4-23.35c62.4-14.43,108.52-12.27,115.63-11.82,7-.41,52-2.27,113.06,11.89a12,12,0,0,1-1.38,23.58Z"/><path class="cls-22" d="M904.43,1202.28a760.69,760.69,0,0,1-243.15-12.22c-114.5-24.69-218-91.62-218.95-92.27-4.24-2.91-11.53-9.16-22.57-18.61-27-23.18-72.3-62-109.08-81.35-44-23.21-64.91-43.63-65.9-64.27-.41-8.46,2.56-20.81,19-31.62,7.85-5.16,14.35-9.41,19.71-12.92-27.47-7.81-46.21-23.57-49.81-43.13-3.17-17.22,6.69-33.42,26.39-43.34,36-18.11,70.44-82.08,80.51-119.37,4.38-16.23,14.05-46.5,28.74-90a12,12,0,1,1,22.7,7.67c-14.32,42.39-24.11,73-28.3,88.54-8.6,31.83-43.92,109.89-92.88,134.54-5.75,2.89-15.17,9-13.59,17.59,2.12,11.52,20.84,24.87,52.53,28.12a14.48,14.48,0,0,1,12.56,11,14.63,14.63,0,0,1-6.16,15.7C310.57,900,299.28,907.3,277,922c-5.62,3.69-8.39,7.2-8.23,10.44.13,2.77,3.32,17.93,53.14,44.22,39.16,20.64,85.69,60.53,113.5,84.35,9.3,8,17.34,14.86,20.54,17.06C471,1088.4,568,1145.42,666.34,1166.63c186.67,40.26,336.69-7.77,338.18-8.26l.35-.11c90.33-26.7,148.74-63.19,169.66-77.64l.91-.62c3.2-2.17,11.23-9,20.52-16.86,28-23.7,74.74-63.37,114.06-83.83,50-26,53.24-41.15,53.38-43.93.18-3.23-2.58-6.76-8.18-10.49-20.11-13.39-32.4-21.45-39-25.81a14.52,14.52,0,0,1-6.14-15.65,14.25,14.25,0,0,1,12.66-11c31.62-3,50.48-16.32,52.66-27.83,1.63-8.55-7.76-14.74-13.5-17.66-48.83-24.93-83.72-103.18-92.14-135-5.31-20.06-18.38-60.28-28.42-90.48a12,12,0,0,1,22.74-7.56c10.15,30.53,23.38,71.26,28.85,91.92,9.86,37.34,44,101.49,79.87,119.81,19.63,10,29.41,26.27,26.15,43.48-3.71,19.54-22.54,35.2-50,42.86,5.51,3.64,12,8,19.64,13,16.39,10.9,19.29,23.27,18.83,31.72-1.1,20.65-22.15,41-66.25,63.9-36.94,19.22-82.44,57.81-109.62,80.86-11,9.34-18.3,15.51-22.55,18.4l-.76.52c-21.85,15.1-82.76,53.18-176.32,80.85C1007.52,1182.6,967.49,1195.26,904.43,1202.28Zm420.55-306h0Zm4.26-17.28.09.06ZM307.32,893.51h0Z"/><path class="cls-18" d="M1279,348.17c-22.73,90.11-79.42,138.43-79.42,138.43l-5,1.45c-10-20.25-30.9-41.9-55.18-62.29-19.28-16.12-40.7-31.43-60.39-44.53-40.23-26.75-49-82-19.63-120.34s62.92-70.41,94.41-96.11a708.79,708.79,0,0,1,65.52-47.37c25.94-16.57,60.39-1.62,66.14,28.62A470,470,0,0,1,1279,348.17Z"/><g class="cls-23"><path class="cls-22" d="M1153.75,382.81a297.68,297.68,0,0,1-14.38,42.95c-19.28-16.12-40.7-31.43-60.39-44.53-40.23-26.75-49-82-19.63-120.34s62.92-70.41,94.41-96.11a43.18,43.18,0,0,1,6.46,15.93A470.39,470.39,0,0,1,1153.75,382.81Z"/></g><path class="cls-22" d="M1188.32,491.1c-5.14-8.9-12-17.05-19.23-24.82a302.83,302.83,0,0,0-23.43-22.07c-8.32-6.91-16.76-13.74-25.52-20.21s-17.71-12.72-26.73-18.89c-4.55-3-9.08-6.1-13.69-9.05l-6.92-4.43-3.47-2.2c-1.17-.74-2.25-1.38-3.68-2.4a80.14,80.14,0,0,1-26-105.23l2.53-4.27,1.27-2.09,1.22-1.75,4.91-7c3.29-4.64,6.5-9.35,9.86-13.94l10.63-13.35,5.32-6.67,5.6-6.43,11.23-12.82,11.91-12.19c2-2,3.94-4.08,6-6.05l6.2-5.82c4.18-3.84,8.17-7.87,12.5-11.53a499.86,499.86,0,0,1,53.88-41.2c18.91-12.4,38.36-23.72,59.46-32.44a3.84,3.84,0,0,1,3.56,6.76l-.18.11a591.64,591.64,0,0,0-52.86,39.12c-8.54,6.86-16.69,14.18-24.84,21.45l-12,11.08-11.66,11.48a626.77,626.77,0,0,0-43.8,48.31l-5.2,6.26-4.91,6.49-9.83,13-9.3,13.32-4.67,6.66-1.16,1.66-.87,1.48-1.73,2.9a55.6,55.6,0,0,0,17,72c.79.66,2.06,1.5,3.21,2.29l3.49,2.38,6.94,4.83c4.63,3.22,9.19,6.55,13.75,9.86a491,491,0,0,1,52.11,43.72,265.68,265.68,0,0,1,23.09,25.6c7.14,9.12,13.66,18.95,18.4,30a6.93,6.93,0,0,1-12.38,6.2Z"/><path class="cls-18" d="M353.55,345.66c22.24,90.23,78.67,138.86,78.67,138.86l5,1.48c10.1-20.2,31.12-41.73,55.51-62a700.57,700.57,0,0,1,60.64-44.2c40.37-26.53,49.45-81.73,20.28-120.24S511.11,188.82,479.77,163a708.16,708.16,0,0,0-65.27-47.72c-25.85-16.72-60.38-2-66.29,28.26A469.86,469.86,0,0,0,353.55,345.66Z"/><g class="cls-23"><path class="cls-22" d="M478.59,381a298.63,298.63,0,0,0,14.14,43,700.57,700.57,0,0,1,60.64-44.2c40.37-26.53,49.45-81.73,20.28-120.24S511.11,188.82,479.77,163a43.09,43.09,0,0,0-6.55,15.9A470.4,470.4,0,0,0,478.59,381Z"/></g><path class="cls-22" d="M431.05,482.89c4.8-11,11.37-20.82,18.56-29.89a264.53,264.53,0,0,1,23.23-25.48,490.53,490.53,0,0,1,52.34-43.44c4.59-3.28,9.16-6.59,13.81-9.78l7-4.79,3.5-2.37c1.16-.78,2.43-1.62,3.22-2.27a56.06,56.06,0,0,0,17.73-20.1c8.25-16.07,8.25-36-.3-51.81l-1.7-2.91-.87-1.48-1.15-1.67-4.63-6.68-9.23-13.38-9.75-13-4.88-6.51L532.72,241a628.44,628.44,0,0,0-43.53-48.55L477.59,181l-12-11.16c-8.1-7.31-16.22-14.67-24.72-21.58a590.73,590.73,0,0,0-52.65-39.4l-.17-.12a3.84,3.84,0,0,1,3.59-6.74c21.05,8.83,40.44,20.27,59.29,32.76a500.45,500.45,0,0,1,53.65,41.49c4.31,3.69,8.28,7.74,12.43,11.6l6.17,5.86c2,2,4,4.06,6,6.08L541,212l11.17,12.88,5.56,6.46L563,238l10.56,13.41c3.34,4.61,6.52,9.33,9.79,14l4.87,7,1.21,1.76,1.26,2.1,2.51,4.28a80,80,0,0,1-.05,76.22,80.56,80.56,0,0,1-26.48,28.86c-1.43,1-2.51,1.66-3.69,2.39l-3.48,2.17-6.94,4.4c-4.63,2.92-9.18,6-13.74,9q-13.59,9.18-26.83,18.75c-8.8,6.42-17.27,13.2-25.63,20.07a301.23,301.23,0,0,0-23.55,21.95c-7.3,7.72-14.17,15.84-19.36,24.71l-.05.08a6.93,6.93,0,0,1-12.34-6.27Z"/><g class="cls-23"><path class="cls-22" d="M946.57,943.58c-4,39.19-30.26,86.61-77,81.77-40.81-4.21-53.64-34.33-53.64-34.33h-.81s-13.07,29.42-53.83,34c-43,4.87-72.65-41.86-76.46-81.07"/></g><path class="cls-16" d="M934.26,937.42c-4,39.19-29,58.46-64.64,54.27-40.74-4.78-51.13-37-53.6-49h-.81c-2.54,12-13.1,44.17-53.87,48.73-35.71,4-60.53-15.41-64.34-54.63"/><path class="cls-17" d="M886.66,993.51a76.11,76.11,0,0,1-17.24-.14C832.6,989.05,819.9,963.19,815.6,948c-4.39,15.13-17.24,40.92-54.07,45h0c-17.94,2-33.47-1.86-44.91-11.14-12-9.71-19.34-25.28-21.25-45l3.35-.33c1.83,18.81,8.75,33.58,20,42.71,10.73,8.7,25.4,12.3,42.42,10.41h0c39.17-4.38,49.7-34.6,52.41-47.4l.28-1.34h3.55l.28,1.34c2.64,12.81,13,43.09,52.14,47.69,17,2,31.74-1.52,42.52-10.17,11.32-9.08,18.32-23.81,20.25-42.61l3.36.35c-2,19.71-9.46,35.24-21.5,44.89C906.81,988.6,897.38,992.32,886.66,993.51Z"/><g class="cls-23"><path class="cls-22" d="M934.26,937.42c-4,39.19-28.94,58.47-64.64,54.26-40.74-4.77-51.11-37-53.61-49h-.81c-2.53,12-13.08,44.17-53.87,48.72-35.7,4-60.53-15.4-64.32-54.62l10.54,0c11.11,17.06,30.07,24.82,53.86,22.14,20.64-2.3,33.51-11.66,41.54-21.88l25.37.07c8,10.26,20.8,19.69,41.38,22.1,23.82,2.82,42.82-4.84,54-21.84Z"/></g><path class="cls-22" d="M887.77,1003.21a86.09,86.09,0,0,1-19.49-.16c-27.87-3.27-43.76-17.69-52.75-31.75-9.06,14-25,28.35-52.92,31.46h-.05c-20.59,2.29-38.61-2.29-52.13-13.25-14.06-11.4-22.64-29.26-24.82-51.64a11.44,11.44,0,0,1,10.12-12.47l.16,0a11.44,11.44,0,0,1,12.49,10.28c1.57,16.15,7.26,28.63,16.45,36.08,8.66,7,20.83,9.89,35.2,8.29h0c31.67-3.54,41.13-26.41,43.95-39.73a11.41,11.41,0,0,1,11.2-9.06H816a11.43,11.43,0,0,1,11.19,9.13c2.74,13.33,12.08,36.25,43.73,40,14.38,1.69,26.58-1.11,35.28-8.09,9.24-7.4,15-19.85,16.65-36a11.43,11.43,0,1,1,22.75,2.33c-2.29,22.38-11,40.19-25.09,51.51C911.43,997.39,900.32,1001.81,887.77,1003.21Z"/><path class="cls-22" d="M1254,609.53a12,12,0,0,1-9-21.11c137.59-115,143.53-394,74.53-515.24-15.21-26.71-40.58-56-75.1-43.84-152.14,53.61-257,197.42-306,278.37a12,12,0,0,1-20.51-12.4c50.63-83.7,159.32-232.48,318.5-288.57,39.11-13.78,76,5.6,103.9,54.58,35.73,62.76,52.76,169.05,43.4,270.8-11,119.84-54.85,217.4-123.39,274.69A12,12,0,0,1,1254,609.53Z"/><path class="cls-22" d="M382,609a12,12,0,0,1-9-2.67c-69-57-113-154.61-123.94-274.83-9.23-101.91,8.06-208.63,44.06-271.9C321.4,9.92,358.62-9.64,398,4.47,557.1,61.54,665,211.18,715.2,295.31a12,12,0,0,1-20.58,12.27C646.09,226.21,542,81.57,389.87,27,355.11,14.57,329.43,44.28,314,71.4c-69.55,122.26-63.93,402.24,74.32,516.4A12,12,0,0,1,382,609Z"/><path class="cls-17" d="M816.94,934.67c-.43,0-.86.07-1.31.07a11.44,11.44,0,0,1-11.4-11.47l.11-40.12a11.44,11.44,0,1,1,22.87.06l-.11,40.12A11.44,11.44,0,0,1,816.94,934.67Z"/><path class="cls-22" d="M888.56,872.6c-.06,23.69-34,55.36-75.75,55.25s-75.51-32-75.45-55.66S771.28,846.6,813,846.72,888.63,848.91,888.56,872.6Z"/><path class="cls-16" d="M845.67,865.7c0,5.19-14.73,12.12-32.85,12.07s-32.8-7-32.78-12.25,14.71-5.59,32.83-5.54S845.68,860.5,845.67,865.7Z"/><path class="cls-17" d="M821,878.86a72,72,0,0,1-8.21.44c-17.66,0-34.33-6.74-34.31-13.78,0-6.67,13.62-7.13,34.36-7.07,9.91,0,17.68.2,23.4.94,4.7.61,10.94,1.94,10.93,6.31h0c0,3.3-3.87,6.74-10.6,9.42A60.2,60.2,0,0,1,821,878.86Zm-30.64-16.61c-5.08.56-8.82,1.55-8.82,3.28,0,3.64,13.18,10.66,31.25,10.71a61.94,61.94,0,0,0,22.65-4c5.95-2.38,8.66-5.08,8.67-6.58h0c0-.66-.8-2.3-8.27-3.27-5.55-.73-13.21-.89-23-.92A221,221,0,0,0,790.39,862.25Z"/><ellipse class="cls-22" cx="610.53" cy="757.69" rx="87.96" ry="62" transform="translate(-224.02 1258.05) rotate(-82.08)"/><ellipse class="cls-16" cx="628.13" cy="746.14" rx="29.54" ry="18.73" transform="matrix(0.14, -0.99, 0.99, 0.14, -197.42, 1265.52)"/><ellipse class="cls-22" cx="1022.3" cy="760.79" rx="62" ry="87.96" transform="translate(-42.07 60.07) rotate(-3.3)"/><ellipse class="cls-16" cx="1005.7" cy="747.86" rx="18.73" ry="29.54" transform="translate(-41.36 59.09) rotate(-3.3)"/></g></g></svg>