<svg xmlns="http://www.w3.org/2000/svg" width="2852" height="3037.709" viewBox="0 0 2852 3037.709">
  <g id="Group_31" data-name="Group 31" transform="translate(-310 169)">
    <g id="Ellipse_1" data-name="Ellipse 1" transform="translate(310 -169)" fill="#9258bd" stroke="#707070" stroke-width="1">
      <circle cx="1426" cy="1426" r="1426" stroke="none"/>
      <circle cx="1426" cy="1426" r="1425.5" fill="none"/>
    </g>
    <g id="faq-img" transform="translate(498.008 9.001)">
      <path id="Path_1" data-name="Path 1" d="M832.6,2320.1s-432.5,240.4-666,23.7c-345.2-320.5-12.1-783.9,117.6-794.4,141.8-11.4-24.6,734.9,574,592.6Z" fill="#f99b28"/>
      <g id="Group_2" data-name="Group 2" opacity="0.5">
        <g id="Group_1" data-name="Group 1" opacity="0.5">
          <path id="Path_2" data-name="Path 2" d="M858.2,2142l-25.5,178.1s-9.1,5-25.3,13l21.4-149c-598.6,142.3-432.2-604-573.9-592.6-38.3,3.1-94.2,45.6-145.3,112.2,57.7-90.5,128.9-150.7,174.7-154.4C426,1538,259.6,2284.3,858.2,2142Z" fill="#fff" opacity="0.5"/>
        </g>
      </g>
      <path id="Path_3" data-name="Path 3" d="M842.7,2249.9l-10.1,70.2s-432.5,240.4-665.9,23.7c-302-280.4-84.8-670.2,61.1-770.4-111.3,164.2-182.3,441.1,47.6,654.5C439.2,2380.1,701.1,2307,842.7,2249.9Z" fill="#fff"/>
      <g id="Group_3" data-name="Group 3" opacity="0.25">
        <path id="Path_4" data-name="Path 4" d="M851.9,2186l-19.2,134.2s-432.6,240.4-666,23.7C-29.8,2161.5-6.5,1932.7,73.9,1767.6,47.8,1906.1,75,2062.1,217,2193.9,412.8,2375.6,748.7,2235.8,851.9,2186Z" opacity="0.25"/>
      </g>
      <path id="Path_5" data-name="Path 5" d="M424.1,2449c-109.3,0-200.1-31.7-267.5-94.3-202-187.5-165.2-408.4-125.3-523.4,58.1-167.6,179.4-290.9,251.8-296.7,59.4-4.8,74.3,78.5,93.1,184,24,134.6,53.9,302.2,175,381.6,73.9,48.4,176,57.6,303.6,27.3a15.145,15.145,0,0,1,13.5,3.5,14.934,14.934,0,0,1,4.7,13.1l-25.6,178.2a14.986,14.986,0,0,1-7.5,10.9c-4.5,2.5-111.5,61.5-249.2,94.6C531.4,2442,475.7,2449,424.1,2449Zm-137-884.8a8.594,8.594,0,0,0-1.6.1c-54.6,4.4-169.8,114.4-226.1,276.8C21.9,1949.3-12.8,2157,176.8,2333c207.6,192.8,588.1,5.8,642.2-22.4l21.4-149.3c-126.1,26.3-228.8,14.2-305.5-36.1-131.8-86.5-164.3-268.4-188-401.3C331.7,1638.3,318.4,1564.2,287.1,1564.2Z"/>
      <g id="Group_5" data-name="Group 5" opacity="0.4">
        <g id="Group_4" data-name="Group 4" opacity="0.4">
          <path id="Path_6" data-name="Path 6" d="M202.5,1786.1c-4.5,26,2.4,152.3,64.5,166.4,51.8,11.8,50.8-26.1,39.6-65.6-19.2-67.6-20.9-133.3-40.1-144.9C251.1,1732.9,213.3,1723.7,202.5,1786.1Z" fill="#fff" opacity="0.4"/>
        </g>
      </g>
      <g id="Group_8" data-name="Group 8" opacity="0.3">
        <g id="Group_6" data-name="Group 6" opacity="0.3">
          <path id="Path_7" data-name="Path 7" d="M2118.6,308.5c-15.7-8.1-33.4-11-53-7.6-244.6,41.7-439,236-526.4,338.5a70.378,70.378,0,0,1-103.4,3.9s240.9-344.9,576.8-402.2C2059,233.2,2094.6,259.9,2118.6,308.5Z" fill="#fff" opacity="0.3"/>
        </g>
        <g id="Group_7" data-name="Group 7" opacity="0.3">
          <path id="Path_8" data-name="Path 8" d="M1485.7,666.6a73.023,73.023,0,0,1-51.8-21.5l-1.6-1.6,1.3-1.8c2.4-3.5,245.4-346.5,578.5-403.2,45.2-7.7,82.8,16.1,108.8,68.8l3.5,7.2-7.1-3.7c-15.5-8-32.8-10.5-51.3-7.4-241,41.1-432.3,229.2-524.9,337.6a73.2,73.2,0,0,1-52.6,25.5A25.29,25.29,0,0,1,1485.7,666.6ZM1439.2,643a67.99,67.99,0,0,0,49.1,18.4,66.472,66.472,0,0,0,48.8-23.7c93-109,285.3-298,528-339.4,16.9-2.9,32.9-1.3,47.6,4.6-24.7-45.7-59-66.1-99.7-59.2C1694.6,298,1458.8,615.9,1439.2,643Z" opacity="0.3"/>
        </g>
      </g>
      <path id="Path_9" data-name="Path 9" d="M1844.7,912.1c-16.8-56.8-83.3-128.9-140.2-182.7-51.4-48.5-50.4-130.4,1.5-178.4,91.3-84.4,196-137.9,266.1-167.4,41.5-17.5,87.5,12.6,88.3,57.7,1.3,69.8-8.4,174.9-59.3,289.9-55.1,124.3-148.8,180-148.8,180" fill="#ff6c6c"/>
      <path id="Path_10" data-name="Path 10" d="M1853.6,913.6l-2.7-4.5c.9-.6,93.7-56.7,147.8-178.8,51.1-115.3,60.3-220.7,59.1-288.8a61.393,61.393,0,0,0-27.8-50.2,60.053,60.053,0,0,0-56.9-5.1c-71,29.9-174.8,83.2-265.3,166.9a120.669,120.669,0,0,0-38.7,87.6,117.388,117.388,0,0,0,37.1,86.9c54.8,51.7,123.7,125.6,140.9,183.8l-5,1.5c-16.9-57.1-85.2-130.2-139.5-181.5a122.607,122.607,0,0,1-38.8-90.8,125.949,125.949,0,0,1,40.3-91.4c91.1-84.2,195.4-137.8,266.9-167.9a66.3,66.3,0,0,1,92,60c1.3,68.6-8,174.8-59.5,291C1948.7,856,1854.6,913,1853.6,913.6Z"/>
      <path id="Path_11" data-name="Path 11" d="M1811.9,750.2a432.341,432.341,0,0,1-31.4,58.4c-23.8-28-50.9-55.4-76.1-79.2C1653,680.9,1654,599,1705.9,551s108.2-86,159.9-115.2a63.719,63.719,0,0,1,5.4,24.6C1872.5,530.2,1862.9,635.3,1811.9,750.2Z" fill="#ff6c6c"/>
      <path id="Path_12" data-name="Path 12" d="M1780.8,813l-2.3-2.7c-20.8-24.5-46.4-51.1-75.9-79a122.548,122.548,0,0,1-38.8-90.7,126.34,126.34,0,0,1,40.3-91.5c46-42.5,100-81.4,160.4-115.6l2.5-1.4,1.2,2.7a65.411,65.411,0,0,1,5.6,25.6c1.2,68.6-8.1,174.8-59.6,291a449.013,449.013,0,0,1-31.5,58.7Zm83.8-373.4c-59.1,33.6-111.8,71.8-156.9,113.4a120.41,120.41,0,0,0-38.6,87.7,117.267,117.267,0,0,0,37.2,86.9c28.6,27,53.4,52.8,73.9,76.7a440.632,440.632,0,0,0,29.3-55c51.1-115.2,60.3-220.6,59.1-288.7A58.947,58.947,0,0,0,1864.6,439.6Z"/>
      <g id="Group_11" data-name="Group 11" opacity="0.3">
        <g id="Group_9" data-name="Group 9" opacity="0.3">
          <path id="Path_13" data-name="Path 13" d="M699.7,61c17.5-2.3,35.1,1,52.5,10.8,216.1,122.1,333.1,370.7,380.7,496.7a70.428,70.428,0,0,0,95.9,38.7S1118.9,201.1,822.3,33.5C781.3,10.4,738.7,23.4,699.7,61Z" fill="#fff" opacity="0.3"/>
        </g>
        <g id="Group_10" data-name="Group 10" opacity="0.3">
          <path id="Path_14" data-name="Path 14" d="M1198.7,616.6a74.18,74.18,0,0,1-27.4-5.3,73.143,73.143,0,0,1-40.9-41.8C1080.1,436,963.7,194.3,750.9,74.1c-16.4-9.2-33.5-12.7-50.8-10.4l-8,1.1,5.8-5.6c42.3-40.8,85.8-50.4,125.7-27.9,294.2,166.2,406.7,571.2,407.8,575.3l.6,2.1-2,.9A74.4,74.4,0,0,1,1198.7,616.6ZM710.4,57.7c14.7,0,29.1,4,43.1,11.8,214.3,121.1,331.3,364,381.9,498.1a66.779,66.779,0,0,0,37.9,38.8,68.005,68.005,0,0,0,52.4-.7c-9.2-32.2-123.5-411.1-404.7-569.9-36-20.3-75.2-12.7-113.9,21.9Z" opacity="0.3"/>
        </g>
      </g>
      <path id="Path_15" data-name="Path 15" d="M753.1,721.7c35.1-47.8,122-93.1,193.8-124.4,64.8-28.3,91.5-105.6,59-168.3C948.4,318.6,868,232.8,812.1,181.4c-33.1-30.5-86.6-17.7-102.6,24.4a687.38,687.38,0,0,0-42.3,292.9c9.7,135.7,79.1,219.8,79.1,219.8" fill="#ff6c6c"/>
      <path id="Path_16" data-name="Path 16" d="M755.2,723.2l-4.2-3.1c35.9-48.9,125.8-95.1,194.8-125.3a117.537,117.537,0,0,0,64.4-69.2,120.863,120.863,0,0,0-6.7-95.5C946.6,320.7,867,235.5,810.3,183.3a60.055,60.055,0,0,0-55.2-14.5,61.39,61.39,0,0,0-43.2,37.8c-24.2,63.7-51.2,165.9-42.2,291.7,9.6,133.3,77.8,217.4,78.5,218.3l-4.1,3.3c-.7-.8-70-86.3-79.7-221.2-9.1-126.7,18.1-229.8,42.5-294a66.351,66.351,0,0,1,106.9-25.4c57,52.5,137,138.2,194.3,248.3a125.99,125.99,0,0,1,7,99.7,123.166,123.166,0,0,1-67.2,72.3C879.4,629.6,790.4,675.2,755.2,723.2Z"/>
      <path id="Path_17" data-name="Path 17" d="M838.7,580.5a454.947,454.947,0,0,0,9.7,65.6c31.9-18.3,66.7-34.9,98.4-48.7,64.8-28.3,91.5-105.6,59-168.4-32.6-62.7-72.7-117.5-111.5-162.6a64.371,64.371,0,0,0-13.4,21.3C856.2,352.9,829.7,455.1,838.7,580.5Z" fill="#ff6c6c"/>
      <path id="Path_18" data-name="Path 18" d="M846.7,650.1l-.8-3.5a455.942,455.942,0,0,1-9.8-65.9c-9.1-126.7,18-229.8,42.4-294a67.225,67.225,0,0,1,13.9-22.2l2-2.1,1.9,2.2c45.3,52.6,82.9,107.5,111.8,163.1a125.767,125.767,0,0,1,6.9,99.8,122.712,122.712,0,0,1-67.2,72.2c-37.2,16.2-70.2,32.6-98.1,48.6Zm47.6-379.8a61.3,61.3,0,0,0-10.9,18.3c-24.2,63.7-51.2,166-42.1,291.7a436.8,436.8,0,0,0,8.9,61.7,1040.266,1040.266,0,0,1,95.5-47.1,117.537,117.537,0,0,0,64.4-69.2,120.685,120.685,0,0,0-6.7-95.6C975.2,375.7,938.5,321.9,894.3,270.3Z"/>
      <path id="Path_19" data-name="Path 19" d="M2012.6,1428.2c-54.9-41.1-87.7-151.7-92.4-205-2.7-30.8-11.7-92.2-18.8-138.7,325.2-189,337.7-874.9,125.8-838.8C1788,286.4,1597,473,1506.8,577.1c-88.8-37.2-156.3-44-156.3-44s-67.5-17-165.7-11.4c-49.4-128.2-166-369.4-377.8-489C619.2-73.4,397.7,581.4,644.1,867.7c-22.2,41-50.5,94.2-63.3,121.7-22.5,48.5-90.9,141.6-156.5,161.6-38.7,11.8-45.6,41.1-25,67.7,13.2,17,37.8,32.9,72.5,42.2,2.7.8,5.6,1.4,8.5,2.1l-.2.1c-2.4,1-22.2,9.3-73.1,31.5-49.9,21.8-20.7,67.4,47.6,119.9s149.1,161.1,166.6,178.1c10.2,10,63.7,70.7,174.3,131.3,78.7,43.2,186.3,86.2,327.8,110.9,340.3,59.4,532.2-47.8,554.5-57.9,22.2-10.1,135-84.9,217.1-111.1,82.1-26.3,124.9-59.4,85.3-96.7-43.2-40.8-58.3-54.6-58.3-54.6,2.8.4,5.7.7,8.4.9,35.9,3.1,64.6-3.6,82.8-15.1C2041.6,1482.3,2045,1452.4,2012.6,1428.2Z" fill="#f99b28"/>
      <g id="Group_13" data-name="Group 13" opacity="0.4">
        <g id="Group_12" data-name="Group 12" opacity="0.4">
          <path id="Path_20" data-name="Path 20" d="M2016.3,307.7c-201.9,34.4-357.8,194.7-455.7,306.4a107.542,107.542,0,0,1-113.9,31.7c-61.8-20-110.9-28.8-110.9-28.8s-50.4-8.7-117-10.6a107.671,107.671,0,0,1-97.2-67.9C1067.5,400.1,975,195.9,796.2,94.9,696.5,38.6,587.4,196.6,543.7,400.2,575.3,165.6,697.5-35.6,808,26.9c211.8,119.6,328.4,360.8,377.8,489,98.2-5.6,165.7,11.4,165.7,11.4s67.5,6.7,156.3,43.9C1598,467.1,1789,280.5,2028.2,239.7c125.1-21.4,172,209.3,122.4,440.7C2178.4,474.1,2129.2,288.5,2016.3,307.7Z" fill="#fff" opacity="0.4"/>
        </g>
      </g>
      <path id="Path_21" data-name="Path 21" d="M1895,1665.9c-82.1,26.3-194.9,101.1-217.1,111.1-22.2,10.1-214.1,117.3-554.5,57.9-141.5-24.7-249.1-67.8-327.8-110.9-110.6-60.6-164.1-121.3-174.3-131.3-17.5-17-98.3-125.6-166.6-178.1s-97.5-98.1-47.6-119.9c50.9-22.2,70.7-30.5,73.1-31.5a.31.31,0,0,1,.2-.1c-2.9-.7-5.8-1.3-8.5-2.1,11.9-1.8,25-3.2,39.3-4,116.1-6.9,232,172.1,442.7,129.5,161.7-32.7,160.6-398.9,216.8-484.3.6-.9,1.1-1.7,1.7-2.6,59.3-88.1,195.4-64.3,221.3,38.6.3,1,.5,2,.8,3,24,99.4-101.1,443.5,40,529.1,183.9,111.4,353.5-17.7,460.4,28.1,13.2,5.6,25.1,11.4,35.7,17.2-2.7-.2-5.6-.5-8.4-.9,0,0,15.1,13.8,58.3,54.6C2019.9,1606.5,1977.1,1639.6,1895,1665.9Z" fill="#fff"/>
      <path id="Path_22" data-name="Path 22" d="M1506.7,598.2a20.105,20.105,0,0,1-8.2-1.7c-84.9-35.7-149.6-42.4-150.2-42.4-1-.1-2.1-.3-3.1-.5-.6-.2-66-16.1-159.3-10.8a21.034,21.034,0,1,1-2.4-42c93.3-5.3,159.5,9,170.5,11.6,11.1,1.3,76.5,9.9,160.9,45.4a21,21,0,0,1-8.2,40.4Z"/>
      <path id="Path_23" data-name="Path 23" d="M662,877.5c-16.3,30.2-32.5,60.4-48,90.8-3.9,7.6-7.7,15.2-11.3,22.7l-5.6,11.8c-2.1,4.2-4.2,8.3-6.4,12.3a435.97,435.97,0,0,1-29.3,45.5c-21.3,28.9-45.2,55.9-74.5,79-14.8,11.3-30.9,21.8-50,28.8l-7,2.4c-1.5.6-3.2,1-4.6,1.6a44.8,44.8,0,0,0-7.9,4,23.867,23.867,0,0,0-5.5,4.6,10.81,10.81,0,0,0-2.7,4.5,12.419,12.419,0,0,0-.7,4.8,22.664,22.664,0,0,0,1.4,6.2,45.422,45.422,0,0,0,9.9,14.4c9.2,9.5,22.2,17.3,36.2,23,3.5,1.4,7.1,2.8,10.8,4,1.8.7,3.7,1.1,5.5,1.7l2.8.8,1.7.5a24.4,24.4,0,0,1,2.4,1,20.874,20.874,0,0,1,4.7,3,22.622,22.622,0,0,1,6.6,8.6,24.629,24.629,0,0,1,.5,19.2,24.025,24.025,0,0,1-5.9,8.7,25.9,25.9,0,0,1-4.2,3.2c-.7.4-1.5.8-2.3,1.2l-.8.4-5.9,2.6L460,1294l-46.6,20.2c-5.8,2.6-9.4,6-10.3,7.8a5.2,5.2,0,0,0-.7,2.9,19.62,19.62,0,0,0,1.1,5.8c1.5,4.9,5.2,10.9,9.5,16.7a196.583,196.583,0,0,0,15.1,17.3,384.245,384.245,0,0,0,36.9,32.1,504.4,504.4,0,0,1,40.6,35.2c25.5,24.6,48.9,50.6,71.6,77l33.5,39.7,16.4,19.5c2.6,3,5.5,6.4,7.7,8.5,1,1.1,2.8,2.8,4.2,4.1l4.5,4.3a874.191,874.191,0,0,0,77.8,64.1c27.1,20,54.9,38.8,83.9,55.5a700.791,700.791,0,0,0,89.3,44.5c7.7,3.1,15.4,6,23.1,8.8l24.1,8.2,48.7,15.8c65.2,20.6,130.7,39.9,197.4,55.6a6.859,6.859,0,0,1,5.1,8.2,6.957,6.957,0,0,1-7,5.3c-34.7-2-69.2-6.7-103.4-12.7s-68.1-13.3-101.8-21.6c-16.9-4.1-33.6-8.5-50.3-13.2l-25.1-7.2c-8.6-2.7-17.2-5.4-25.5-8.6a605.3,605.3,0,0,1-96.3-45.4c-61.2-35.6-117-78.6-168.3-127l-4.8-4.6c-1.7-1.6-3-2.9-5-5-3.9-4-6.5-7.2-9.5-10.7L579.2,1575c-10.9-13.3-21.8-26.5-32.9-39.4-22.1-25.8-44.9-51-68.8-74.2a475.4,475.4,0,0,0-37.3-32.4,411.411,411.411,0,0,1-40.9-35.7,208.182,208.182,0,0,1-18.8-21.5c-5.8-8-11.6-16.7-15.5-28.2a58.587,58.587,0,0,1-3.2-19.5,47.362,47.362,0,0,1,5.8-21.8,52.637,52.637,0,0,1,13.5-15.7,73.459,73.459,0,0,1,14.9-9.2l3.6-1.7,3-1.3,5.9-2.6,11.9-5.1,23.7-10.3,11.9-5.1,5.9-2.6c-.1,0,.7-.3-.1,0a11.941,11.941,0,0,0-1.6.8,20.141,20.141,0,0,0-2.9,2.2,17.363,17.363,0,0,0-4.1,6,16.526,16.526,0,0,0,.3,12.9,16.7,16.7,0,0,0,4.7,6,17.346,17.346,0,0,0,3.4,2.1,12.2,12.2,0,0,0,1.7.7c.6.2,1.4.4.9.3l-3.4-1c-2.3-.7-4.6-1.3-6.8-2.1-4.5-1.5-9-3.1-13.4-5-17.7-7.4-35.1-17.2-50-32.4A85.032,85.032,0,0,1,372,1211a66.864,66.864,0,0,1-4.1-18.9,53.488,53.488,0,0,1,3-20.5,51.624,51.624,0,0,1,10.3-17.5,60.943,60.943,0,0,1,14.1-12.1,85.294,85.294,0,0,1,15-7.7c2.5-1.1,5-1.8,7.5-2.7l5.2-1.8c13.3-4.9,26.5-13.1,38.9-22.7,24.9-19.5,47.1-44.4,66.6-70.9A412.268,412.268,0,0,0,555.1,995c1.9-3.5,3.8-7,5.5-10.5l5.5-11.5c3.8-8,7.7-15.8,11.7-23.5,15.8-30.9,32.1-61.3,48.5-91.7a20.529,20.529,0,0,1,27.7-8.3A21.162,21.162,0,0,1,662,877.5Z"/>
      <path id="Path_24" data-name="Path 24" d="M1921.6,1081.4c4.3,26.9,8.7,53.8,12.6,80.9,1.9,13.6,3.8,27.1,5.5,40.9l2.3,20.5c.6,6,1.7,12.3,2.8,18.5a431.4,431.4,0,0,0,21.4,74.3c9.3,24.1,20.6,47.2,34.8,67,1.7,2.6,3.7,4.7,5.5,7.1,1.9,2.3,3.7,4.7,5.7,6.7l5.9,6.2,6.3,5.3,1.6,1.3,2.4,1.9c1.7,1.4,3.3,2.6,5,4.1a86.672,86.672,0,0,1,9.4,9.7,67.6,67.6,0,0,1,13.9,27.1c2.8,10.8,1.6,23.3-2.6,33.5a65.845,65.845,0,0,1-18,24.6c-14.4,12.4-30.3,18.5-45.8,22.6a179.33,179.33,0,0,1-46.2,4.8c-3.8,0-7.6-.3-11.3-.5h-.8a19.678,19.678,0,0,0,6.7-.9,19.057,19.057,0,0,0,10.2-8,18.843,18.843,0,0,0,2.7-11.3,19.33,19.33,0,0,0-5.4-11.7l14.3,13.4,29.7,28.1,3.7,3.5,1.9,1.8,2.3,2.3a89.035,89.035,0,0,1,9,10.7c5.6,7.8,10.8,19.3,10.4,32.2-.2,12.9-6,24-11.9,31.6a93.141,93.141,0,0,1-19.3,18.2c-13.2,9.5-26.5,16.1-39.9,22-13.3,5.8-26.7,10.6-40.2,15l-5,1.6-4.5,1.6-9.1,3.1c-6,2.3-12.1,4.6-18.1,7.1-48.3,20.4-95.2,46.9-141.9,74.2l-17.7,10.3c-6,3.5-11.8,6.8-18.8,10.5-1.8.9-3.9,2-5.4,2.7l-4.7,2.1-9.7,4.2q-9.75,4.05-19.5,7.8a748.648,748.648,0,0,1-79.6,25c-53.7,13.6-108.6,22.2-163.6,24.7a10.622,10.622,0,0,1-2.7-21h.2c26.4-5.5,52.8-10.8,78.8-17.3s51.8-13.5,77.2-21.6c25.5-7.9,50.5-17,75-26.8,6.1-2.5,12.2-5.1,18.2-7.7l8.9-4.1,4.6-2.2,3.7-1.9c5.1-2.7,11-6.2,16.7-9.6l17.5-10.4c46.9-27.9,94.5-55.7,146.3-78.1,6.5-2.7,13.1-5.4,19.8-8l10.2-3.6,5.1-1.8,4.7-1.6c12.4-4.1,24.5-8.7,36.1-13.8,11.5-5.1,22.5-10.9,31.3-17.5a51.4,51.4,0,0,0,10.3-9.7c2.3-3.1,2.7-5,2.6-5.7,0-.8-.3-2.6-2.5-5.7a29.388,29.388,0,0,0-4.2-4.8l-1.3-1.3-1.9-1.7-3.7-3.5-29.7-27.7-15.4-14.5a26.455,26.455,0,0,1-7.6-16.2,25.81,25.81,0,0,1,3.9-16.2,26.159,26.159,0,0,1,14.1-11.1,27.292,27.292,0,0,1,9.2-1.3l1.8.1c3,.1,6,.4,9,.4a131.538,131.538,0,0,0,34.7-3.5c10.7-2.7,20.7-7.1,26.9-12.7a21.922,21.922,0,0,0,6.1-7.8,10.3,10.3,0,0,0,.5-6.5,21.293,21.293,0,0,0-4.8-8.7,43.911,43.911,0,0,0-4.8-4.9,37.04,37.04,0,0,0-2.9-2.4l-3.9-3.2-9.3-7.9-8.2-8.5a102.724,102.724,0,0,1-7.5-8.8c-2.3-3-4.9-5.9-7-9-17.4-24.6-30.2-50.6-40.1-77.4a474.95,474.95,0,0,1-22.7-82.5c-1.2-7.2-2.3-14.3-3-21.8l-2-20c-1.4-13.2-3.1-26.6-4.9-40-3.5-26.8-7.1-53.7-10.9-80.5a20.546,20.546,0,0,1,40.6-6.3Z"/>
      <path id="Path_25" data-name="Path 25" d="M667.1,498.6c9.7,135.6,79.1,219.7,79.1,219.7l6.9,3.4c19.6-26.6,55.2-52.5,95.4-75.7,31.9-18.3,66.7-34.9,98.4-48.7,64.8-28.3,91.5-105.6,59-168.4-32.6-62.7-72.7-117.5-111.5-162.6a1038.808,1038.808,0,0,0-82.3-85c-33.1-30.5-86.6-17.7-102.6,24.3C684.6,271,658.1,373.2,667.1,498.6Z" fill="#ff6c6c"/>
      <g id="Group_14" data-name="Group 14" opacity="0.3">
        <path id="Path_26" data-name="Path 26" d="M838.7,580.5a454.947,454.947,0,0,0,9.7,65.6c31.9-18.3,66.7-34.9,98.4-48.7,64.8-28.3,91.5-105.6,59-168.4-32.6-62.7-72.7-117.5-111.5-162.6a64.371,64.371,0,0,0-13.4,21.3C856.2,352.9,829.7,455.1,838.7,580.5Z" opacity="0.3"/>
        <path id="Path_27" data-name="Path 27" d="M846.7,650.1l-.8-3.5a455.942,455.942,0,0,1-9.8-65.9c-9.1-126.7,18-229.8,42.4-294a67.225,67.225,0,0,1,13.9-22.2l2-2.1,1.9,2.2c45.3,52.6,82.9,107.5,111.8,163.1a125.767,125.767,0,0,1,6.9,99.8,122.712,122.712,0,0,1-67.2,72.2c-37.2,16.2-70.2,32.6-98.1,48.6Zm47.6-379.8a61.3,61.3,0,0,0-10.9,18.3c-24.2,63.7-51.2,166-42.1,291.7a436.8,436.8,0,0,0,8.9,61.7,1040.266,1040.266,0,0,1,95.5-47.1,117.537,117.537,0,0,0,64.4-69.2,120.685,120.685,0,0,0-6.7-95.6C975.2,375.7,938.5,321.9,894.3,270.3Z" fill="#6b184e" opacity="0.3"/>
      </g>
      <path id="Path_28" data-name="Path 28" d="M746.7,707.2a16.711,16.711,0,0,1,1.7-5.2l.3-.5,1-1.1,2-2.2,4-4.4c2.6-3,5.5-5.6,8.3-8.4s5.7-5.5,8.6-7.9c11.6-10.4,23.9-19.4,36.4-28.1,25-17.3,51.3-31.9,77.9-45.5,13.3-6.8,26.7-13.3,40.3-19.5l20.3-9.2c2.6-1.4,5.3-2.6,7.9-4,2.4-1.7,5.1-3,7.4-4.8,18.8-13.9,31.3-36.5,32.2-59.8a78.308,78.308,0,0,0-5.9-34.1l-.8-2c-.3-.7-.7-1.6-1.1-2.4l-2.3-4.8-4.6-9.7c-3-6.5-6-12.9-9.4-19.2-12.6-25.6-27.4-50.1-42.6-74.3A819.813,819.813,0,0,0,821.4,226.4c-10.1-10.1-20.3-20-30.9-29.5-2.6-2.4-5.3-4.7-8-7-.6-.5-1.5-1.3-1.9-1.6l-1.2-.9c-.8-.5-1.6-1.1-2.5-1.6a22.753,22.753,0,0,0-17.1-2.1c-.9.2-1.9.6-2.8.9-.8.4-1.8.8-3,1.5a58.73,58.73,0,0,0-12.8,9.9c-7.9,8.2-14.3,19-19.3,31-1.2,3-2.4,6-3.5,9.2l-1.6,4.7-1.5,5.1c-2.1,6.8-4.1,13.7-6,20.6-3.8,13.8-7.2,27.8-10.3,41.8a788.527,788.527,0,0,0-13.9,84.8c-5.9,56.7-5.9,114.6,7.4,168.9,1.4,6.9,3.6,13.5,5.6,20.1l3.1,10,3.7,10.2c2.4,6.8,4.9,13.6,7.6,20.2,2.5,6.7,5.3,13.3,8.1,19.9a405.431,405.431,0,0,0,18.2,38.1,181.18,181.18,0,0,0,10.6,16.9,70.206,70.206,0,0,0,5.6,6.8l1.3,1.3,1.1.9a3.808,3.808,0,0,1,.6.5c-.1-.1-.2-.1-.3-.2a6.656,6.656,0,0,0-.7-.3l-.5-.1C757.2,706.1,749.5,705.1,746.7,707.2Zm12.7,28.9c-3,2-10.9,1.1-10.9.7l-1.1-.4a10.265,10.265,0,0,1-2-.8c-.9-.4-1.9-.9-2.8-1.4a43.956,43.956,0,0,1-3.9-2.6l-3.1-2.6-2.6-2.5a107.1,107.1,0,0,1-8.6-10,208.318,208.318,0,0,1-13.1-20.1,421.444,421.444,0,0,1-20.3-41c-3-6.9-6-13.8-8.7-20.7-2.9-6.9-5.5-13.9-8.1-20.9l-3.9-10.5-3.6-11a216.61,216.61,0,0,1-6.5-22.2c-15.3-59.7-15.9-121.1-10.5-180.8a828.67,828.67,0,0,1,13.4-88.9q4.5-22.05,10.2-43.8c1.8-7.3,3.9-14.5,6-21.7l1.6-5.4,1.8-5.7c1.2-3.8,2.7-7.6,4.2-11.4,6-15.2,14.4-30.3,26.7-43.5a94.623,94.623,0,0,1,21.7-17.2c1.9-1.1,4.3-2.3,6.8-3.5a68.638,68.638,0,0,1,7.6-2.7,61.212,61.212,0,0,1,15.9-2.4,62.691,62.691,0,0,1,30.9,7.4,59.158,59.158,0,0,1,6.8,4.2l3.2,2.4,2.4,2c2.9,2.5,5.8,4.9,8.7,7.4,11.5,9.9,22.4,20.2,33.2,30.8A871.064,871.064,0,0,1,911.5,264a788.279,788.279,0,0,1,53.2,72.8c4.2,6.2,8.1,12.7,12,19.1s7.9,12.8,11.5,19.5l10.9,19.8,10.2,20.2c3.5,6.7,6.6,13.5,9.7,20.4l4.6,10.3,2.3,5.2c.4.9.8,1.7,1.2,2.6l1.2,3.1a121.815,121.815,0,0,1,8,52.1c-2.1,35.4-21.3,68.9-50,89.2-3.5,2.6-7.4,4.7-11.1,7-3.8,2.1-7.9,3.9-11.8,5.7l-20,8.4C930.1,625.1,917,631,904,637.2a706.642,706.642,0,0,0-75.2,41,338.6,338.6,0,0,0-34.1,24.4,101.583,101.583,0,0,0-7.8,6.7c-2.5,2.3-5.2,4.5-7.4,6.9l-3.5,3.6-1.8,1.8-.9.9-1.4,1.6A154.168,154.168,0,0,1,759.4,736.1Z"/>
      <path id="Path_29" data-name="Path 29" d="M1977.5,778.3c-64.3,119.8-161.9,168.3-161.9,168.3l-7.6.3c-7-32.3-29-70.4-56.2-108-21.6-29.7-46.6-59.1-69.9-84.7-47.6-52.3-40.4-133.8,14.9-177.8,55.4-44,114.3-77.6,168.1-102.9a1047.13,1047.13,0,0,1,109.8-44c42.7-14.3,86.3,19.2,83.7,64.1C2054.5,563.4,2037,667.5,1977.5,778.3Z" fill="#ff6c6c"/>
      <g id="Group_15" data-name="Group 15" opacity="0.3">
        <path id="Path_30" data-name="Path 30" d="M1787.5,783a433.23,433.23,0,0,1-35.7,55.9c-21.6-29.7-46.6-59.1-69.9-84.7-47.6-52.3-40.4-133.8,14.9-177.8,55.4-44,114.3-77.6,168.1-102.9a64.043,64.043,0,0,1,3.5,24.9C1864.4,568.1,1846.9,672.2,1787.5,783Z" opacity="0.3"/>
        <path id="Path_31" data-name="Path 31" d="M1751.8,843.3l-2.1-2.9c-18.9-26-42.4-54.4-69.7-84.4a122.789,122.789,0,0,1-31.9-93.4,125.92,125.92,0,0,1,47.1-88.2c49.1-39,105.8-73.7,168.7-103.2l2.6-1.2,1,2.7a66.768,66.768,0,0,1,3.7,25.9c-3.9,68.5-21.2,173.8-81.3,285.7a441.014,441.014,0,0,1-35.9,56.2Zm111.6-366.1c-61.4,29.1-116.9,63.2-164.9,101.3a121.009,121.009,0,0,0-45.1,84.5,117.455,117.455,0,0,0,30.5,89.4c26.5,29.1,49.3,56.6,68,82a443.624,443.624,0,0,0,33.3-52.7c59.6-111.1,76.7-215.5,80.6-283.5A61.458,61.458,0,0,0,1863.4,477.2Z" fill="#6b184e" opacity="0.3"/>
      </g>
      <path id="Path_32" data-name="Path 32" d="M1796.3,957.5a131.206,131.206,0,0,1-6.2-15.9l-.6-2-.4-1.2-.9-2.4-1.7-4.7c-1-3.1-2.6-6.2-3.9-9.4-1.3-3.1-2.8-6.2-4.4-9.3a348.692,348.692,0,0,0-21.2-36.2,700.844,700.844,0,0,0-51.9-68.2q-13.95-16.35-28.7-32.3l-14.8-15.8c-2.8-3.3-5.8-6.6-8.4-10.1-2.4-3.6-5.2-7.1-7.3-11-17.9-30.3-21.8-68.7-9.2-101.9a120.969,120.969,0,0,1,28.5-44.3l2.3-2.4c.8-.7,1.4-1.3,2.1-1.9l4.2-3.8,8.4-7.5c5.6-5,11.3-10,17.2-14.7l17.5-14.2L1735,535c6-4.6,12.2-8.8,18.4-13.1s12.4-8.6,18.8-12.6a787.346,787.346,0,0,1,78.3-44.8,829.072,829.072,0,0,1,82.6-36.1c14.1-5.2,28.3-10.2,42.9-14.5,3.6-1.1,7.3-2.1,10.9-3.2l2.9-.8,3.9-.9a70,70,0,0,1,8-1.1,63.638,63.638,0,0,1,31.3,5.8,59.892,59.892,0,0,1,13.5,8.7,51.154,51.154,0,0,1,5.8,5.6,59.982,59.982,0,0,1,4.8,6,93.845,93.845,0,0,1,12.7,24.5c5.9,17.1,7.3,34.3,6.6,50.6-.2,4.1-.4,8.1-.9,12.1l-.7,6-.8,5.6c-1,7.5-2.1,14.9-3.4,22.3-2.4,14.8-5.4,29.5-8.6,44.1a819.236,819.236,0,0,1-24.1,86.7c-19.4,56.7-45,112.5-83.4,160.7-4.5,6.2-9.8,11.8-15,17.6l-7.7,8.6-7.9,7.9c-5.2,5.3-10.5,10.6-15.9,15.7-5.3,5.2-10.9,10.3-16.4,15.4-11.2,10.1-22.6,20-35.3,29.1a184.09,184.09,0,0,1-20.2,13,94.2,94.2,0,0,1-11.9,5.6l-3.4,1.2-3.9,1.1c-1.3.3-3.1.6-4.6.8-1,.1-2.1.1-3.1.2a17.027,17.027,0,0,1-2.1-.1l-1.2-.1C1805.8,962.9,1798.2,960.5,1796.3,957.5Zm23.4-21.3c-1.7-3-9.1-5.3-9-4.9l-.5-.1H1809a4.5,4.5,0,0,0,.8-.2l1.4-.4,1.8-.7a71.555,71.555,0,0,0,7.9-3.9,159.988,159.988,0,0,0,16.6-11.1,405.037,405.037,0,0,0,32.2-27.3c5.2-4.9,10.4-9.8,15.5-14.9,5.1-5,10.2-10.1,15.2-15.4l7.5-7.8,6.9-7.9c4.6-5.2,9.3-10.3,13.3-16.1,34.3-44.2,58-97,75.7-151.2a787.009,787.009,0,0,0,21.9-83.1c2.9-14,5.5-28.2,7.6-42.3q1.65-10.65,3-21.3l.7-5.3.5-4.9c.3-3.3.5-6.6.6-9.8.4-12.9-1.1-25.4-4.9-36.1a59.018,59.018,0,0,0-7.6-14.3c-.8-1.1-1.5-1.9-2.1-2.6a20.887,20.887,0,0,0-2.2-2,23.258,23.258,0,0,0-5-3.1,21.751,21.751,0,0,0-11.5-1.9c-1,.1-1.9.3-2.9.4l-1.4.4c-.5.1-1.6.5-2.3.7-3.4,1-6.8,2-10.1,3.1-13.5,4.2-27,9.1-40.3,14.2a823.987,823.987,0,0,0-152.2,78.5c-23.7,15.8-47.2,32.1-69.2,50.4-5.7,4.4-11,9.1-16.4,13.7l-8.1,7-4.1,3.5c-.6.6-1.4,1.2-2,1.7l-1.5,1.5a80.36,80.36,0,0,0-19.3,28.7c-8.8,21.7-6.6,47.4,4.9,67.8,1.3,2.6,3.2,4.9,4.7,7.4,1.7,2.4,3.7,4.6,5.6,6.9l14.8,16.7q14.7,16.8,28.8,34.2c18.7,23.3,36.8,47.3,52.6,73.3a373.506,373.506,0,0,1,21.8,40.5c1.7,3.5,3.2,7.1,4.6,10.8s3,7.2,4.2,11.1l1.9,5.7.9,2.8.5,1.4.1.6A29.519,29.519,0,0,1,1819.7,936.2Z"/>
      <path id="Path_33" data-name="Path 33" d="M1283.8,1503.5c-18.4,105.7-78,183.6-133,174s-84.7-103.1-66.2-208.8" fill="#ff6c6c"/>
      <path id="Path_34" data-name="Path 34" d="M1159.9,1680.9a62.172,62.172,0,0,1-9.6-.8c-27.6-4.8-49.9-29.7-62.7-70.1-12.6-39.8-14.6-90.1-5.6-141.7l5.2.9c-8.8,50.7-6.9,100.1,5.5,139.2,12.2,38.4,33,62.1,58.6,66.5,53.4,9.3,111.8-67.8,130-171.9l5.2.9C1268.8,1604.9,1213.5,1680.9,1159.9,1680.9Z"/>
      <path id="Path_35" data-name="Path 35" d="M1278.9,1527.3c-8.3,34.3-20.9,64.8-36.1,89.3-26.1,42.3-59.8,66.6-92,60.9-32.2-5.6-55.7-39.9-65.9-88.6-6-28.1-7.5-61.1-3.7-96.1Z" fill="#ed2e7a"/>
      <path id="Path_36" data-name="Path 36" d="M1163.2,1606.8c-2.7-9.9-3.6-19.5-4.1-29a264.824,264.824,0,0,1,.7-28.2c.6-9.3,1.6-18.6,2.7-27.8a254.136,254.136,0,0,1,5.1-27.4,14.971,14.971,0,0,1,29.4,5.1,253.894,253.894,0,0,1-4.4,27.5c-2,9.1-4.2,18.1-6.8,27.1a261.143,261.143,0,0,1-8.9,26.7C1173.1,1589.7,1169.1,1598.4,1163.2,1606.8Z"/>
      <path id="Path_37" data-name="Path 37" d="M1163.5,1696.5a92.547,92.547,0,0,1-15.7-1.4c-64.6-11.3-104.8-91.8-89.5-179.4a17.871,17.871,0,1,1,35.2,6.2c-11.7,67.1,16,130.4,60.4,138.1,20.7,3.6,42.7-5,62-24.2,20.9-20.8,35.7-51.1,41.6-85.3a17.871,17.871,0,1,1,35.2,6.2c-7.2,41.4-25.5,78.5-51.6,104.5C1217.9,1684.2,1190.8,1696.5,1163.5,1696.5Z"/>
      <g id="Group_16" data-name="Group 16" opacity="0.3">
        <path id="Path_38" data-name="Path 38" d="M1081.2,1492.8c-3.4,30.9-2.6,60.2,1.8,86,1.3.1,2.5.4,3.9.5,59.9,3.4,86.1-35.8,86.1-35.8l1.2.2s11.1,46.6,68.9,62.8c1.7.5,3.4.9,5,1.2,12.9-22.9,23.6-50.2,30.9-80.5Z" opacity="0.3"/>
      </g>
      <path id="Path_39" data-name="Path 39" d="M1358.1,1495.7c-15.5,55.5-56.2,77.1-106.7,62.3-57.6-17-64.6-66-65.2-84l-1.2-.2c-6.6,16.7-29.8,60.5-89.7,56.9-52.5-3.1-83.5-37.2-79.3-94.7" fill="#fff"/>
      <path id="Path_40" data-name="Path 40" d="M1281.1,1565.2a104.221,104.221,0,0,1-30.4-4.7c-51.7-15.2-63.9-55.2-66.5-78.3-10.2,20.8-35.3,54.3-89,51.1-26.4-1.6-47.9-11-62.2-27.2-14.9-17-21.7-41.3-19.5-70.3l5.3.4c-2,27.5,4.3,50.5,18.3,66.4,13.3,15.2,33.5,24,58.5,25.4,57.4,3.4,80.1-37.5,87.1-55.3l.8-2,5.4.9.1,2.1c.6,19.1,8.1,65.2,63.3,81.5,24,7.1,46,5.7,63.7-4.1,18.5-10.3,32.2-29.7,39.7-56.3l5.1,1.4c-7.8,28-22.4,48.6-42.2,59.5C1307.4,1562.1,1294.7,1565.2,1281.1,1565.2Z"/>
      <g id="Group_17" data-name="Group 17" opacity="0.3">
        <path id="Path_41" data-name="Path 41" d="M1358.1,1495.7c-15.5,55.5-56.2,77.2-106.7,62.3-57.6-17-64.5-66-65.2-83.9l-1.2-.2c-6.6,16.7-29.8,60.4-89.8,56.9-52.5-3-83.5-37.2-79.2-94.7l1.8.3c8.1,1.4,14.8,6.5,19.3,13.4,13.4,20.6,36.3,32.5,66.3,34.2,30.3,1.8,51.2-8.5,65.3-21.3l36.6,6.4c9,16.8,25.1,33.6,54.2,42.1,28.8,8.5,54.5,5.1,74-9.8a29.1,29.1,0,0,1,22.7-6Z" opacity="0.3"/>
      </g>
      <path id="Path_42" data-name="Path 42" d="M1361,1496.5a89.037,89.037,0,0,1-6.2,33.8,78.011,78.011,0,0,1-55.6,48.6,99.115,99.115,0,0,1-38.3,1,66.587,66.587,0,0,1-9.1-1.8,90.234,90.234,0,0,1-8.9-2.5c-2.9-1-5.9-2-8.8-3.1l-8.6-4.1a101.214,101.214,0,0,1-30.4-23.8,108.351,108.351,0,0,1-19.4-33.2,106.845,106.845,0,0,1-5-18.2,115.316,115.316,0,0,1-2.3-18.6l14.9,17.1-1.2-.2,19.8-11.1a118.9,118.9,0,0,1-19,32.4,105,105,0,0,1-29.6,24.9,101.122,101.122,0,0,1-36.9,11.9c-3.2.3-6.3.6-9.5.8l-9.4-.1c-3.1,0-6.2-.4-9.3-.7a73.043,73.043,0,0,1-9.2-1.4,101.817,101.817,0,0,1-35.9-13.7,79.021,79.021,0,0,1-27.3-28.4,76.187,76.187,0,0,1-9.5-36.2,85.252,85.252,0,0,1,6.8-34.2,3.077,3.077,0,0,1,4.1-1.6,3.238,3.238,0,0,1,1.8,2v.1c6.2,21.2,12.9,39.5,24,51.8a63.778,63.778,0,0,0,18.7,14.8,80.151,80.151,0,0,0,23.9,7.2c8.6,1.1,17.8,1.8,26.1.7a70.751,70.751,0,0,0,23.5-6.6,66.6,66.6,0,0,0,19.5-15,78.536,78.536,0,0,0,13.7-21.9l.1-.2a17.93,17.93,0,0,1,19.7-10.9l1.2.2h.2a17.72,17.72,0,0,1,14.6,17.1,75.508,75.508,0,0,0,5,25.4,61.241,61.241,0,0,0,13.3,20.9,70.5,70.5,0,0,0,20.2,14.1c7.5,3.7,16.4,6.2,24.9,8.1,17.2,3.6,33.4,2.4,48.2-5.5,7.5-3.9,14.5-9.7,21-16.8a217.275,217.275,0,0,0,18.4-24.7l.1-.1a3.174,3.174,0,0,1,4.3-.9A3.419,3.419,0,0,1,1361,1496.5Z"/>
      <path id="Path_43" data-name="Path 43" d="M1901.4,1105.6a21.09,21.09,0,0,1-10.6-39.3c225.5-131,302.6-529.6,233.5-720.3-14.9-41-43.1-88.1-93.5-79.5C1799.2,305.9,1613,486.7,1522.7,591a21.053,21.053,0,1,1-31.8-27.6c94-108.5,288.3-296.8,532.8-338.5,61.7-10.5,111.5,27.4,140.2,106.7,36.8,101.5,35.1,256.1-4.4,403.4-45.8,171-133.7,301.6-247.6,367.7A20.072,20.072,0,0,1,1901.4,1105.6Z"/>
      <path id="Path_44" data-name="Path 44" d="M644,888.9a21.269,21.269,0,0,1-16-7.3C542,781.5,502.4,629,516.5,452c12-149.9,63.6-300.3,131.6-383.2C702.3,2.7,762.4-16.6,817.3,14.5c216.3,122.2,335.4,365.6,387.1,499.8a21.051,21.051,0,0,1-39.3,15.1c-49.7-128.9-163.6-362.5-368.5-478.2-44.9-25.4-87.8,10.1-115.9,44.4C565.2,236.2,479,643.7,660,854.1a21.049,21.049,0,0,1-16,34.8Z"/>
      <g id="Group_18" data-name="Group 18" opacity="0.3">
        <path id="Path_45" data-name="Path 45" d="M1895,1665.9c-82.1,26.2-194.9,101-217.1,111.1-22.3,10.1-214.1,117.3-554.5,57.9h-.1c-141.5-24.7-249.1-67.8-327.8-110.9-110.6-60.6-164.1-121.3-174.4-131.3-17.5-17-98.3-125.6-166.6-178.1s-97.4-98.2-47.6-120c7.8-3.4,15-6.5,21.4-9.2,140.3,154.9,392.2,383.1,714.2,439.2s636.3-73.2,820.8-171.5c5.1,4.8,10.7,10.1,16.9,16C2019.9,1606.5,1977.1,1639.6,1895,1665.9Z" opacity="0.3"/>
      </g>
      <path id="Path_46" data-name="Path 46" d="M1190.6,1463.9a16.273,16.273,0,0,1-3.1-.3,17.847,17.847,0,0,1-14.5-20.7l10.1-57.8a17.871,17.871,0,1,1,35.2,6.2l-10.1,57.8A18.057,18.057,0,0,1,1190.6,1463.9Z"/>
      <path id="Path_47" data-name="Path 47" d="M1308.2,1390.9c-6,34.1-62.7,71.4-122.9,60.9s-101-64.8-95-98.9,55.2-28.5,115.4-18S1314.2,1356.8,1308.2,1390.9Z"/>
      <path id="Path_48" data-name="Path 48" d="M1248.1,1370.4c-1.3,7.5-24.2,13.8-50.4,9.3-26.1-4.6-45.5-18.3-44.2-25.8s22.6-4.4,48.7.1S1249.4,1362.9,1248.1,1370.4Z" fill="#fff"/>
      <path id="Path_49" data-name="Path 49" d="M1215.3,1383.6a100.356,100.356,0,0,1-18-1.6,96.92,96.92,0,0,1-33.3-12.1c-9.1-5.6-13.8-11.6-12.9-16.4,1.1-6.4,10.5-6.8,17.5-6.4,8.4.4,19.7,2.1,34,4.6s25.5,4.7,33.5,7.2c6.7,2.1,15.4,5.6,14.3,12-.8,4.8-7.3,8.9-17.7,11.1A96.154,96.154,0,0,1,1215.3,1383.6Zm-49.9-31.9c-8.4,0-9.4,1.9-9.5,2.5-.4,2.1,2.8,6.6,10.7,11.6,8.6,5.3,19.8,9.4,31.6,11.5a90.134,90.134,0,0,0,33.6-.1c9.1-1.9,13.6-5.1,14-7.2.1-.7-.3-3.3-11-6.6-7.8-2.4-18.8-4.6-32.9-7-14.1-2.5-25.2-4.2-33.4-4.6C1167.3,1351.7,1166.3,1351.7,1165.4,1351.7Z"/>
      <path id="Path_50" data-name="Path 50" d="M1026.5,1174.65c10.9-75.99-23.65-143.82-77.175-151.5s-105.748,47.71-116.649,123.7,23.65,143.82,77.173,151.5S1015.6,1250.64,1026.5,1174.65Z"/>
      <path id="Path_51" data-name="Path 51" d="M986.776,1146.82c3.663-25.54-6.487-48.11-22.67-50.44s-32.27,16.5-35.932,42.03,6.487,48.11,22.67,50.43S983.114,1172.35,986.776,1146.82Z" fill="#fff"/>
      <path id="Path_52" data-name="Path 52" d="M1665.6,1242.6a428.338,428.338,0,0,0-48.4,7.9,296.083,296.083,0,0,0-45.1,14.1c-7.2,2.7-14,6.3-20.9,9.5l-9.8,5.7c-1.6,1-3.3,1.8-4.9,2.8l-4.7,3.2c-12.8,8-23.7,18.5-34.6,29.2l-22-36.2c1.5-.4,2.5-.5,3.5-.7,1.1-.2,2.1-.4,3-.5,2-.3,3.9-.5,5.8-.7,3.9-.4,7.6-.6,11.4-.7a168.679,168.679,0,0,1,22.5.8,165.188,165.188,0,0,1,43.4,10.1c13.8,5.3,27.1,12.1,38.7,21,11.9,8.5,21.8,19.2,30.5,30.3a7.611,7.611,0,0,1-9.6,11.4l-.8-.4c-5.8-3.1-11.1-6.7-16.8-9.5a188.263,188.263,0,0,0-17.1-7.9,168.593,168.593,0,0,0-34.9-10.5,171,171,0,0,0-35.6-3.3c-3,0-5.9.2-8.9.3l-8.8.7c-2.9.4-5.8.7-8.6,1.2-1.4.2-2.8.5-4.1.8-.7.1-1.3.3-1.9.4l-1.4.3-.5.1a22.069,22.069,0,0,1-26.6-16.4,22.473,22.473,0,0,1,5.1-19.9c12.8-14.1,26.6-27.7,43-37.7,7.8-5.6,16.7-9.4,25.1-13.8,8.9-3.4,17.6-7.2,26.8-9.4a192.627,192.627,0,0,1,55.2-6.9c18.5.5,36.4,3.2,54.1,9.8a7.664,7.664,0,0,1-1.8,14.8Z"/>
      <path id="Path_53" data-name="Path 53" d="M2058.4,2692.6c-72.3,120.6-136,140.2-150.1,144.8-41.4,13.5-140.8-.7-140.8-.7s-277-27.9-483.7-28.3H997.5c-6.3,0-12.7,0-19.2.1-204.8,1.6-468.6,28.2-468.6,28.2s-99.4,14.2-140.8.7c-14.1-4.6-77.8-24.2-150.1-144.8-89-148.5-47.7-268.1,8.7-316.9,78.4-67.8,152.1-15.9,203.9,61.8,8.3-17.6,22.2-35.8,38.9-52.6,31.1-31.3,71.9-57.9,104.7-66.5,90.6-23.7,182.3,18.4,231.2,105.1h664.9c48.8-86.7,140.5-128.8,231.2-105.1,50.4,13.2,119.8,68.8,143.6,119,51.8-77.7,125.4-129.6,203.9-61.8C2106.1,2424.4,2147.3,2544.1,2058.4,2692.6Z" fill="#f99b28"/>
      <path id="Path_54" data-name="Path 54" d="M2058.4,2692.6c-72.3,120.6-136,140.2-150.1,144.8-41.4,13.5-140.8-.7-140.8-.7s-277-27.9-483.7-28.3H997.5c-6.3,0-12.7,0-19.2.1-204.8,1.6-468.6,28.2-468.6,28.2s-99.4,14.2-140.8.7c-14.1-4.6-77.8-24.2-150.1-144.8-88.9-148.4-47.7-268.1,8.7-316.9,78.4-67.8,152.1-15.9,203.8,61.8,8.3-17.6,22.2-35.8,38.9-52.6,33.1-4.5,59.1,7.8,83.5,27.4,41.7,33.5,78.9,88.5,139.2,118.4,100.8,50,208.4,26.9,208.4,26.9s-47.9-61.9-83.9-134.2h642.2c-36.1,72.3-83.9,134.2-83.9,134.2s107.6,23.1,208.4-26.9c1.3-.7,2.6-1.3,3.9-2,92.9-48.5,130.5-155.8,218.9-143.9,16.7,16.8,30.5,35,38.8,52.6,51.7-77.7,125.4-129.6,203.8-61.8C2106.1,2424.4,2147.3,2544.1,2058.4,2692.6Z" fill="#fff"/>
      <g id="Group_19" data-name="Group 19" opacity="0.3">
        <path id="Path_55" data-name="Path 55" d="M2058.4,2691.5c-72.3,120.6-136,140.2-150.1,144.8-41.4,13.5-140.8-.7-140.8-.7s-277-27.9-483.7-28.3H993.4c-206.6.3-483.7,28.3-483.7,28.3s-99.4,14.2-140.8.7c-14.1-4.6-77.8-24.2-150.1-144.8-49-81.7-58.5-154.7-47.7-212,6.5,37.8,21.4,79.1,47.7,123.1,72.3,120.6,136.2,139.7,150.1,144.8C507,2798,551,2671,610.8,2660.9c72.3-12.2,140.6,43.3,211.3,52.7a.9.9,0,0,1,.5.1c18.4,2.4,27.9-21.4,13-32.4-101.3-74.7-208.1-167.6-281.9-268.9-56.9-78.1-94.1-161.2-94.1-245,0-195.4,166.1-353.8,371-353.8,119.1,0,225.2,53.6,293,136.8,67.9-83.3,173.9-136.8,293-136.8,204.9,0,371,158.4,371,353.8a266.4,266.4,0,0,1-1.5,28.2c-11.8,115.5-94.1,230.6-196.9,332-.4.4-.9.8-1.3,1.2-58.1,57.1-122.6,109.7-184.7,155.5-14.3,10.6-6.2,33.4,11.6,32.5,15.4-.7,29-1.7,40-3.2,70.7-9.4,139-65,211.3-52.7,59.9,10.1,103.8,137.1,241.9,86.5,13.9-5.1,77.8-24.2,150.1-144.8,26.3-43.9,41.2-85.3,47.7-123.1C2116.9,2536.7,2107.3,2609.7,2058.4,2691.5Z" opacity="0.3"/>
      </g>
      <path id="Path_56" data-name="Path 56" d="M444.6,2427.5a75.57,75.57,0,0,1,6.2,7.3c1.8,2.4,3.5,4.8,5.1,7.3a151.873,151.873,0,0,1,8.6,15.2c5.2,10.3,8.9,21.3,12.4,32.2a299.005,299.005,0,0,1,8.1,33.3,243.688,243.688,0,0,1,3.8,34.1,2.454,2.454,0,0,1-2.4,2.5,2.356,2.356,0,0,1-2.1-1.1c-6.3-9.6-11.9-19.2-17.7-28.7l-16.9-28.1c-5.6-9.2-11.5-18.2-16.7-27.4-2.7-4.5-5.3-9.1-7.8-13.6l-3.7-6.8c-1.1-2.2-2.5-4.7-3.1-6.4l-1-2.5a16.4,16.4,0,0,1,27.2-17.3Z"/>
      <path id="Path_57" data-name="Path 57" d="M1859,2447.4c-.7,1.7-2,4.3-3.1,6.4l-3.7,6.8c-2.5,4.5-5.1,9.1-7.8,13.6-5.2,9.1-11.1,18.1-16.7,27.4l-16.9,28.1c-5.8,9.5-11.3,19.1-17.7,28.7a2.524,2.524,0,0,1-3.4.7,2.609,2.609,0,0,1-1.1-2.1,242.039,242.039,0,0,1,3.8-34.1,293.7,293.7,0,0,1,8.1-33.3c3.4-10.9,7.1-21.9,12.4-32.2a134.452,134.452,0,0,1,8.6-15.2,87.275,87.275,0,0,1,5.1-7.3,89.868,89.868,0,0,1,6.2-7.3,16.469,16.469,0,0,1,27.3,17.3Z"/>
      <path id="Path_58" data-name="Path 58" d="M422.6,2859.7c-21.9,0-43.4-1.7-58.7-6.7-69.9-22.7-125.1-95.2-159.1-152-88.8-148.2-56-279,12-337.9,31.8-27.5,65.4-39.1,99.7-34.4,39.2,5.3,78.2,32.3,113.6,78.5,32-46.3,91.9-92,140.7-104.8a16.481,16.481,0,0,1,8.3,31.9c-47.3,12.4-111.9,65.9-132.8,110.1a16.352,16.352,0,0,1-13.7,9.4,16.652,16.652,0,0,1-14.9-7.3c-23.7-35.5-61.2-79.1-105.7-85.2-24.6-3.3-49.3,5.7-73.7,26.7-58,50.1-84.3,164.1-5.3,296,31.2,52,80.9,118.1,140.6,137.5l.5.2c31,10.1,106.7,2.5,133.3-1.3.2,0,.4-.1.7-.1,2.8-.3,283.9-28.4,489.4-28.4h282.2c205.6,0,486.6,28.1,489.4,28.4.2,0,.4.1.7.1,26.6,3.8,102.4,11.4,133.3,1.3l.5-.2c59.7-19.4,109.4-85.5,140.6-137.5,79-131.9,52.6-245.9-5.3-296-24.3-21-49.1-30-73.7-26.7-44.5,6-82,49.6-105.7,85.2a16.652,16.652,0,0,1-14.9,7.3,16.352,16.352,0,0,1-13.7-9.4c-20.9-44.2-85.5-97.8-132.8-110.1a16.481,16.481,0,0,1,8.3-31.9c48.8,12.8,108.7,58.5,140.7,104.8,35.5-46.2,74.4-73.2,113.6-78.5,34.3-4.7,67.9,6.9,99.7,34.4,68,58.8,100.8,189.7,12,337.9-34.1,56.8-89.2,129.3-158.7,151.9-43.8,14.3-136.2,1.9-148.3.2-11.1-1.1-285.1-28.2-485.8-28.2H997.5c-200.7,0-474.7,27.1-485.8,28.2C503.9,2854.2,462.6,2859.7,422.6,2859.7Z"/>
      <g id="Group_20" data-name="Group 20" opacity="0.3">
        <path id="Path_59" data-name="Path 59" d="M1219.9,2807.4c-.6.4-1.2.7-1.7,1.1H1027.3a17.366,17.366,0,0,1-1.8-1.1Z" opacity="0.3"/>
      </g>
      <path id="Path_60" data-name="Path 60" d="M1787.7,2084.9a266.4,266.4,0,0,1-1.5,28.2c-11.8,115.5-94.1,230.6-196.9,332-166.9,164.4-387.8,292.5-449.2,326.6a34.048,34.048,0,0,1-32.9.2c-102.5-55.6-647.5-366.4-647.5-686.9,0-195.4,166.1-353.8,371-353.8,119.1,0,225.2,53.6,293,136.8,67.9-83.3,173.9-136.8,293-136.8C1621.7,1731.1,1787.7,1889.5,1787.7,2084.9Z" fill="#f9266c"/>
      <g id="Group_22" data-name="Group 22" opacity="0.5">
        <g id="Group_21" data-name="Group 21" opacity="0.5">
          <path id="Path_61" data-name="Path 61" d="M1787.7,2084.9c0,8.4-.4,16.7-1.2,25-15.2-182.1-174.9-325.3-369.8-325.3-106,0-201.6,42.4-269.2,110.4-4.4,4.4,24.8,37.5,23.8,43.6-6.4,40.3-41.1-8-47.6-17.2-67.9-83.3-173.9-136.8-293-136.8-194.9,0-354.9,143.5-369.8,325.8q-1.2-12.75-1.2-25.5c0-195.4,166.1-353.8,371-353.8,119.1,0,225.2,53.6,293,136.8,67.9-83.3,173.9-136.8,293-136.8C1621.7,1731.1,1787.7,1889.5,1787.7,2084.9Z" fill="#fff" opacity="0.5"/>
        </g>
      </g>
      <g id="Group_23" data-name="Group 23" opacity="0.3">
        <path id="Path_62" data-name="Path 62" d="M475.2,2114.5c-4.7-.4-9.4-.7-14-1.1-.9-9.1-1.4-18.3-1.4-27.4C464.4,2095.5,469.6,2105,475.2,2114.5Z" opacity="0.3"/>
      </g>
      <g id="Group_24" data-name="Group 24" opacity="0.3">
        <path id="Path_63" data-name="Path 63" d="M1787.7,2084.9a266.4,266.4,0,0,1-1.5,28.2c-34.1,2.8-68.7,4.9-100.9,6.6,32.4-53.6,54.2-108.8,59.9-164.1a266.392,266.392,0,0,0,1.5-28.2v-4.5A339.939,339.939,0,0,1,1787.7,2084.9Z" opacity="0.3"/>
      </g>
      <path id="Path_64" data-name="Path 64" d="M1123.6,2792.5a50.956,50.956,0,0,1-24.2-6.2c-109.6-59.4-656.2-372.6-656.2-701.4,0-204.2,173.8-370.3,387.5-370.3,113.6,0,219.3,46.4,293,128,73.7-81.6,179.4-128,293-128,213.6,0,387.5,166.1,387.5,370.3,0,320.4-546.5,640.3-656,701.2A51.573,51.573,0,0,1,1123.6,2792.5Zm-292.9-1045c-195.5,0-354.5,151.3-354.5,337.4,0,310.1,532.2,614.6,638.9,672.5a17.434,17.434,0,0,0,17-.1c46.6-25.9,210.4-120.3,359.5-245.8,185.5-156.2,279.6-299.7,279.6-426.6,0-186-159-337.4-354.5-337.4-110.4,0-212.5,47.7-280.2,130.7a16.479,16.479,0,0,1-25.6,0C1043.2,1795.2,941.1,1747.5,830.7,1747.5Z"/>
      <g id="Group_25" data-name="Group 25" opacity="0.3">
        <path id="Path_65" data-name="Path 65" d="M1786.2,2113.1c-11.8,115.5-94.1,230.6-196.9,332-166.9,164.4-387.8,292.5-449.2,326.6a34.048,34.048,0,0,1-32.9.2c-67.9-36.8-330.1-185.7-499.3-375.2-.7-.7-1.3-1.4-1.9-2.1-77.6-87.5-135.3-183.5-144.9-281.1,4.7.4,9.4.7,14,1.1,88.5,6.6,177.5,9,214.8,12.9,104.5,11,171.3,108.3,78.2,228.2-6.6,8.6-16.7,18-28.5,27.6,225.5,139.6,517.8,130.3,733.5-30.5-89.7-118.5-23.1-214.3,80.5-225.3,25.4-2.6,74.8-4.6,131.7-7.7C1717.6,2118,1752.2,2115.9,1786.2,2113.1Z" opacity="0.3"/>
      </g>
      <g id="Group_26" data-name="Group 26" opacity="0.3">
        <path id="Path_66" data-name="Path 66" d="M606.1,2394.5c-79.4-88.3-138.7-184.7-148.5-281.4l3.6.3C470.8,2211,528.5,2307,606.1,2394.5Z" opacity="0.3"/>
      </g>
      <path id="Path_67" data-name="Path 67" d="M1633.6,1798.2s245.4,161.3,223.9,370.5c-30.4,296-310.2,195.6-363.4,121-91.3-128.2-7.6-233.7,96.9-244.7,85.8-9,171.7-5.9,170.7-69.4S1633.6,1798.2,1633.6,1798.2Z" fill="#fff"/>
      <g id="Group_27" data-name="Group 27" opacity="0.25">
        <path id="Path_68" data-name="Path 68" d="M1857.5,2168.7c-30.4,296-310.2,195.6-363.4,121-41.3-58-46.8-111.3-30.8-153.3,6.3,18.8,16.4,38.4,30.8,58.7,51.8,72.6,318.7,169.9,360.5-99A261.586,261.586,0,0,1,1857.5,2168.7Z" opacity="0.25"/>
      </g>
      <path id="Path_69" data-name="Path 69" d="M1678,2384.7c-83.9,0-168.8-45.3-197.3-85.4-43.1-60.5-53.6-123.2-29.5-176.6,23.2-51.5,76.1-87.5,138.1-94,12.3-1.3,24.5-2.3,36.4-3.4,81.7-7,120.1-14.1,119.5-49.4-.7-41-75.6-123.2-122.6-165.4a16.48,16.48,0,0,1,20.1-26c10.4,6.8,253.5,169.2,231.2,386-14.8,144.3-86.2,192.6-143.5,207.8A214.8,214.8,0,0,1,1678,2384.7Zm98.2-424.5a74.272,74.272,0,0,1,1.9,15.1c1.1,69.9-75.5,76.4-149.7,82.8-11.7,1-23.8,2-35.8,3.3-50.4,5.3-93.1,34-111.5,74.8-19,42.2-9.7,93.4,26.3,143.9,26,36.4,127.1,89.3,214.4,66.2,67.7-17.9,109-79.9,119.2-179.3C1849,2089.5,1817.5,2018.3,1776.2,1960.2Z"/>
      <path id="Path_70" data-name="Path 70" d="M613.1,1798.2s-245.4,161.3-223.9,370.5c30.4,296,310.2,195.6,363.4,121,91.3-128.2,7.6-233.7-96.9-244.7-85.8-9-171.7-5.9-170.7-69.4S613.1,1798.2,613.1,1798.2Z" fill="#fff"/>
      <g id="Group_28" data-name="Group 28" opacity="0.25">
        <path id="Path_71" data-name="Path 71" d="M752.6,2289.6c-53.1,74.6-332.9,175-363.4-121a262.8,262.8,0,0,1,2.9-73.3c42.1,268.2,308.7,171,360.4,98.4,14.3-20,24.2-39.4,30.6-58C799.4,2177.9,794.1,2231.4,752.6,2289.6Z" opacity="0.25"/>
      </g>
      <path id="Path_72" data-name="Path 72" d="M568.6,2384.7a204.247,204.247,0,0,1-52.3-6.5c-57.3-15.1-128.7-63.5-143.5-207.8-22.3-216.7,220.8-379.2,231.2-386a16.48,16.48,0,0,1,20.1,26c-47.1,42.2-121.9,124.5-122.6,165.4-.6,35.3,37.8,42.4,119.5,49.4,11.9,1,24.1,2.1,36.4,3.4,62,6.5,114.9,42.6,138.1,94,24.1,53.4,13.6,116.1-29.5,176.6C737.4,2339.3,652.5,2384.7,568.6,2384.7Zm-98.2-424.5c-41.3,58-72.8,129.3-64.8,206.8,10.2,99.4,51.4,161.4,119.2,179.3,87.3,23.1,188.4-29.8,214.4-66.2,36-50.6,45.4-101.7,26.3-143.9-18.4-40.8-61.1-69.5-111.5-74.8-11.9-1.3-24.1-2.3-35.8-3.3-74.1-6.3-150.8-12.9-149.7-82.8A82.064,82.064,0,0,1,470.4,1960.2Z"/>
      <path id="Path_73" data-name="Path 73" d="M1136.3,1857.2a56.529,56.529,0,0,1,8.3,7.8,73.566,73.566,0,0,1,6.8,8.8c4.2,6.1,7.4,12.9,10.5,19.7,5.9,13.8,10.7,28.4,11.7,44a2.564,2.564,0,0,1-2.4,2.7,2.792,2.792,0,0,1-1.8-.6l-.1-.1c-6-4.9-11.2-9.8-16.6-14.7l-15.4-14.6c-5-4.9-10-9.7-14.5-14.9-4.4-5.2-8.7-10.8-11.5-16.8l-.4-.7a16.805,16.805,0,0,1,25.4-20.6Z"/>
      <g id="Group_30" data-name="Group 30" opacity="0.3">
        <g id="Group_29" data-name="Group 29" opacity="0.3">
          <path id="Path_74" data-name="Path 74" d="M1294,1893.3c53.6-51.8,210.3-60.2,280.5,10.5,60,60.5-42.3,50.7-123.2,46C1381,1945.8,1240.4,1945.1,1294,1893.3Z" fill="#fff" opacity="0.3"/>
        </g>
      </g>
      <path id="Path_75" data-name="Path 75" d="M1600.1,2269.9c-8.1,6.9-17.2,11.3-26.4,15.2-9.3,3.8-18.9,6.2-28.8,8.3a176.724,176.724,0,0,1-30.2,3.4c-10.3,0-20.8-.7-31.2-3.4a15.47,15.47,0,0,1,5.1-30.4l.7.1c8.4.7,17,1.6,25.8,2.1,8.9.5,17.9.8,27.1,1s18.5.1,28.1.5C1580,2267.3,1589.7,2267.9,1600.1,2269.9Z"/>
      <path id="Path_76" data-name="Path 76" d="M1580.4,2154.1a259.689,259.689,0,0,1-31,8.8c-10.1,2.3-20.2,4-30.1,6q-14.85,2.85-29.4,6c-9.7,1.9-19.2,4.3-28.9,6.1l-.6.1a15.462,15.462,0,0,1-7.9-29.8,162.346,162.346,0,0,1,31.9-7.5,220.235,220.235,0,0,1,32.4-2,191.313,191.313,0,0,1,32.1,2.6C1559.7,2146.3,1570.3,2149,1580.4,2154.1Z"/>
      <path id="Path_77" data-name="Path 77" d="M642.9,2269.9c10.4-2,20.1-2.6,29.7-3.2,9.6-.5,18.9-.4,28.1-.5,9.2-.2,18.2-.5,27.1-1,8.8-.5,17.4-1.4,25.8-2.1l.7-.1a15.48,15.48,0,0,1,5.2,30.4,118.924,118.924,0,0,1-31.2,3.4,200.8,200.8,0,0,1-30.2-3.4,160.661,160.661,0,0,1-28.8-8.3C660,2281.2,651,2276.7,642.9,2269.9Z"/>
      <path id="Path_78" data-name="Path 78" d="M662.5,2154.1c10.1-5.2,20.7-7.8,31.3-9.9a192.167,192.167,0,0,1,32.1-2.6,220.2,220.2,0,0,1,32.4,2,167.989,167.989,0,0,1,31.9,7.5,15.45,15.45,0,0,1-7.8,29.8l-.6-.1c-9.7-1.7-19.1-4.2-28.9-6.1q-14.55-3.15-29.4-6c-9.9-1.9-19.9-3.7-30.1-6C683.3,2160.5,673.1,2158.1,662.5,2154.1Z"/>
      <path id="Path_79" data-name="Path 79" d="M340.653,2689.89c28.66-6.21,45.44-41.04,37.478-77.8s-37.651-61.52-66.312-55.31-45.44,41.04-37.478,77.79S311.992,2696.1,340.653,2689.89Z" fill="#ff6c6c"/>
      <path id="Path_80" data-name="Path 80" d="M376.543,2557.6c16.181-2.69,26.764-20.14,23.638-39s-18.778-31.95-34.96-29.27-26.764,20.14-23.638,38.99S360.361,2560.28,376.543,2557.6Z" fill="#ff6c6c"/>
      <path id="Path_81" data-name="Path 81" d="M298.325,2528.27c17.918-1.76,30.779-20.08,28.725-40.91s-18.243-36.29-36.161-34.52-30.779,20.08-28.726,40.91S280.407,2530.04,298.325,2528.27Z" fill="#ff6c6c"/>
      <path id="Path_82" data-name="Path 82" d="M249.636,2569.1c12.259-2.03,20.351-14.81,18.074-28.54s-14.06-23.21-26.319-21.18-20.35,14.82-18.074,28.55S237.378,2571.14,249.636,2569.1Z" fill="#ff6c6c"/>
      <path id="Path_83" data-name="Path 83" d="M1998.27,2631.53c9.88-36.29-5.06-71.95-33.35-79.65s-59.25,15.47-69.12,51.76,5.05,71.96,33.35,79.66S1988.39,2667.82,1998.27,2631.53Z" fill="#ff6c6c"/>
      <path id="Path_84" data-name="Path 84" d="M1931.6,2521.66c4.11-18.66-5.55-36.65-21.57-40.17s-32.33,8.74-36.44,27.4,5.54,36.65,21.56,40.18S1927.49,2540.33,1931.6,2521.66Z" fill="#ff6c6c"/>
      <path id="Path_85" data-name="Path 85" d="M2012.96,2491.1c3.14-20.69-8.75-39.66-26.55-42.36s-34.78,11.88-37.92,32.58,8.74,39.66,26.54,42.36S2009.81,2511.8,2012.96,2491.1Z" fill="#ff6c6c"/>
      <path id="Path_86" data-name="Path 86" d="M2048.77,2547.41c2.99-13.59-4.42-26.78-16.55-29.45s-24.4,6.18-27.4,19.77,4.42,26.78,16.56,29.45S2045.78,2561,2048.77,2547.41Z" fill="#ff6c6c"/>
    </g>
  </g>
</svg>
