<?xml version="1.0" encoding="UTF-8"?>
<!DOCTYPE svg PUBLIC "-//W3C//DTD SVG 1.1//EN" "http://www.w3.org/Graphics/SVG/1.1/DTD/svg11.dtd">
<svg xmlns="http://www.w3.org/2000/svg" version="1.1" width="2166px" height="1748px" style="shape-rendering:geometricPrecision; text-rendering:geometricPrecision; image-rendering:optimizeQuality; fill-rule:evenodd; clip-rule:evenodd" xmlns:xlink="http://www.w3.org/1999/xlink">
<g><path style="opacity:0.98" fill="#010100" d="M 2165.5,171.5 C 2165.5,173.5 2165.5,175.5 2165.5,177.5C 2164.01,181.176 2161.85,184.509 2159,187.5C 2059.11,289.253 1948.94,377.42 1828.5,452C 1733.25,510.128 1634.92,562.795 1533.5,610C 1438.99,652.724 1342.99,691.724 1245.5,727C 1251.21,742.95 1256.21,759.117 1260.5,775.5C 1292.59,772.704 1321.92,780.204 1348.5,798C 1378.2,820.617 1393.2,850.784 1393.5,888.5C 1389.89,912.484 1386.39,936.484 1383,960.5C 1380.12,966.63 1379.78,972.964 1382,979.5C 1386.69,999.207 1395.35,1016.87 1408,1032.5C 1414.94,1046.04 1421.61,1059.71 1428,1073.5C 1430.59,1098.55 1433.59,1123.55 1437,1148.5C 1437.43,1171.77 1431.77,1193.44 1420,1213.5C 1414.05,1222.45 1407.72,1231.11 1401,1239.5C 1377.4,1263.76 1350.9,1284.26 1321.5,1301C 1298.59,1313.75 1275.26,1325.75 1251.5,1337C 1165.51,1368.33 1079.51,1399.66 993.5,1431C 874.968,1468.4 756.634,1506.4 638.5,1545C 583.871,1559.78 529.371,1574.95 475,1590.5C 432.718,1576.45 390.551,1561.95 348.5,1547C 317.925,1531.55 286.925,1516.88 255.5,1503C 213.462,1483.49 173.795,1460.16 136.5,1433C 119.545,1419.71 105.045,1404.21 93,1386.5C 82.0819,1368.01 79.4152,1348.35 85,1327.5C 88.907,1307.82 92.907,1288.15 97,1268.5C 101.799,1260.07 105.632,1251.24 108.5,1242C 109.158,1231.37 110.825,1220.71 113.5,1210C 102.388,1162.27 94.7214,1113.94 90.5,1065C 91.6757,1027.98 107.676,999.309 138.5,979C 149.741,972.418 161.407,966.752 173.5,962C 198.688,958.029 223.688,953.029 248.5,947C 273.368,938.933 298.368,931.266 323.5,924C 330.369,919.733 337.369,915.733 344.5,912C 375.497,872.327 407.997,833.827 442,796.5C 529.303,703.861 620.47,615.361 715.5,531C 751.748,500.55 789.081,471.55 827.5,444C 855.764,424.697 885.431,407.697 916.5,393C 933.779,385.24 951.779,379.907 970.5,377C 996.351,375.637 1022.02,374.471 1047.5,373.5C 1066.39,373.91 1084.39,378.077 1101.5,386C 1113.13,392.617 1123.29,401.117 1132,411.5C 1151.94,436.031 1167.77,463.031 1179.5,492.5C 1214.8,464.184 1250.47,436.35 1286.5,409C 1424.25,313.649 1575.25,247.316 1739.5,210C 1840.58,195.209 1941.58,179.876 2042.5,164C 2080.17,163.333 2117.83,163.333 2155.5,164C 2160.24,164.846 2163.57,167.346 2165.5,171.5 Z"/></g>
<g><path style="opacity:1" fill="#990000" d="M 1718.5,300.5 C 1638.05,342.226 1557.38,383.726 1476.5,425C 1470.8,428.843 1465.14,432.677 1459.5,436.5C 1380.39,481.045 1305.39,531.545 1234.5,588C 1193.28,621.546 1157.28,659.879 1126.5,703C 1210.53,665.817 1294.2,627.817 1377.5,589C 1469.76,550.569 1562.09,511.902 1654.5,473C 1734.1,436.372 1811.1,395.372 1885.5,350C 1951.77,309.096 2012.27,260.596 2067,204.5C 2071.17,199.667 2075.33,194.833 2079.5,190C 2061.17,189.5 2042.84,189.333 2024.5,189.5C 2057.35,188.697 2090.35,187.863 2123.5,187C 2038.65,272.235 1945.99,347.235 1845.5,412C 1738.4,480.391 1626.73,540.724 1510.5,593C 1420.9,632.866 1329.9,669.2 1237.5,702C 1178.78,725.014 1122.45,753.014 1068.5,786C 1043.85,802.15 1020.18,819.65 997.5,838.5C 997.167,838.167 996.833,837.833 996.5,837.5C 999.8,828.63 1002.63,819.63 1005,810.5C 1005.67,805.833 1005.67,801.167 1005,796.5C 1000.33,802.5 995.667,808.5 991,814.5C 975.062,840.766 958.729,866.766 942,892.5C 936.088,907.658 929.088,922.325 921,936.5C 912.033,958.431 902.533,980.098 892.5,1001.5C 887.678,995.205 882.845,988.872 878,982.5C 877.333,981.5 877.333,980.5 878,979.5C 902.92,935.328 927.587,890.995 952,846.5C 972.4,820.032 992.067,793.032 1011,765.5C 1055.47,712.034 1104.3,662.868 1157.5,618C 1240.1,549.07 1327.43,486.736 1419.5,431C 1486.67,392.084 1556.67,359.084 1629.5,332C 1659.25,321.649 1688.91,311.149 1718.5,300.5 Z"/></g>
<g><path style="opacity:1" fill="#cb0000" d="M 2012.5,190.5 C 2016.3,189.517 2020.3,189.183 2024.5,189.5C 2042.84,189.333 2061.17,189.5 2079.5,190C 2075.33,194.833 2071.17,199.667 2067,204.5C 2012.27,260.596 1951.77,309.096 1885.5,350C 1811.1,395.372 1734.1,436.372 1654.5,473C 1562.09,511.902 1469.76,550.569 1377.5,589C 1294.2,627.817 1210.53,665.817 1126.5,703C 1157.28,659.879 1193.28,621.546 1234.5,588C 1305.39,531.545 1380.39,481.045 1459.5,436.5C 1459.61,437.117 1459.94,437.617 1460.5,438C 1490.19,441.262 1519.86,440.929 1549.5,437C 1614.23,428.532 1676.56,411.532 1736.5,386C 1797.31,359.766 1854.98,328.099 1909.5,291C 1951.12,261.406 1989.78,228.073 2025.5,191C 2021.18,190.501 2016.85,190.334 2012.5,190.5 Z"/></g>
<g><path style="opacity:1" fill="#e61e1e" d="M 2012.5,190.5 C 2016.85,190.334 2021.18,190.501 2025.5,191C 1989.78,228.073 1951.12,261.406 1909.5,291C 1854.98,328.099 1797.31,359.766 1736.5,386C 1676.56,411.532 1614.23,428.532 1549.5,437C 1519.86,440.929 1490.19,441.262 1460.5,438C 1459.94,437.617 1459.61,437.117 1459.5,436.5C 1465.14,432.677 1470.8,428.843 1476.5,425C 1557.38,383.726 1638.05,342.226 1718.5,300.5C 1794.92,273.304 1871.92,247.804 1949.5,224C 1946.83,223.333 1944.17,223.333 1941.5,224C 1841.47,245.005 1742.81,270.672 1645.5,301C 1584.25,321.25 1524.92,346.084 1467.5,375.5C 1466.47,375.103 1466.31,374.437 1467,373.5C 1492.03,338.287 1523.87,311.287 1562.5,292.5C 1563.3,292.043 1563.63,291.376 1563.5,290.5C 1664.5,250.733 1768.83,222.733 1876.5,206.5C 1886.08,206.011 1895.42,204.678 1904.5,202.5C 1940.26,196.526 1976.26,192.526 2012.5,190.5 Z"/></g>
<g><path style="opacity:1" fill="#a81617" d="M 1904.5,202.5 C 1895.42,204.678 1886.08,206.011 1876.5,206.5C 1885.58,204.345 1894.92,203.012 1904.5,202.5 Z"/></g>
<g><path style="opacity:1" fill="#ca0000" d="M 1563.5,290.5 C 1563.63,291.376 1563.3,292.043 1562.5,292.5C 1523.87,311.287 1492.03,338.287 1467,373.5C 1466.31,374.437 1466.47,375.103 1467.5,375.5C 1403.34,416.137 1339.01,456.637 1274.5,497C 1192.61,552.296 1117.11,615.796 1048,687.5C 1023.25,714.911 999.251,742.911 976,771.5C 997.773,738.678 1020.11,706.011 1043,673.5C 1087.37,625.466 1131.37,577.133 1175,528.5C 1194.29,510.208 1214.45,493.042 1235.5,477C 1259.7,460.736 1283.36,443.736 1306.5,426C 1386.96,371.431 1472.63,326.265 1563.5,290.5 Z"/></g>
<g><path style="opacity:1" fill="#59bf59" d="M 904.5,1038.5 C 905.376,1038.37 906.043,1038.7 906.5,1039.5C 909.098,1045.46 911.598,1051.46 914,1057.5C 914.667,1058.83 915.333,1058.83 916,1057.5C 939.218,1012.73 963.718,968.725 989.5,925.5C 997.479,924.668 1005.48,924.168 1013.5,924C 1060.09,913.354 1106.75,903.02 1153.5,893C 1186.81,876.412 1220.47,860.912 1254.5,846.5C 1256.41,856.778 1258.08,867.112 1259.5,877.5C 1259.66,879.857 1259.5,882.19 1259,884.5C 1188.92,935.983 1113.76,979.483 1033.5,1015C 858.975,1092.45 677.975,1149.95 490.5,1187.5C 489.494,1187.06 489.494,1186.4 490.5,1185.5C 489.675,1184.61 488.675,1184.28 487.5,1184.5C 501.069,1132.48 514.569,1080.48 528,1028.5C 583.892,854.695 667.559,696.028 779,552.5C 816.056,505.61 858.223,463.944 905.5,427.5C 906.362,426.234 907.029,424.901 907.5,423.5C 913.849,419.872 920.516,416.706 927.5,414C 948.341,408.539 969.341,403.873 990.5,400C 1014.85,396.768 1039.19,396.768 1063.5,400C 1078.78,402.807 1092.45,409.141 1104.5,419C 1122.64,435.776 1136.48,455.609 1146,478.5C 1150.24,489.976 1154.74,501.309 1159.5,512.5C 1112.18,564.983 1064.68,617.316 1017,669.5C 982.603,711.613 955.936,758.279 937,809.5C 934.963,817.91 932.63,826.243 930,834.5C 903.791,885.084 877.958,935.917 852.5,987C 865.62,1008.07 879.12,1028.91 893,1049.5C 896.702,1045.63 900.536,1041.96 904.5,1038.5 Z"/></g>
<g><path style="opacity:1" fill="#41a741" d="M 907.5,423.5 C 907.029,424.901 906.362,426.234 905.5,427.5C 858.223,463.944 816.056,505.61 779,552.5C 667.559,696.028 583.892,854.695 528,1028.5C 514.569,1080.48 501.069,1132.48 487.5,1184.5C 476.562,1182.08 466.229,1178.08 456.5,1172.5C 455.791,1171.6 454.791,1171.26 453.5,1171.5C 462.993,1126.87 472.159,1082.21 481,1037.5C 491.396,1000.59 502.73,963.926 515,927.5C 523.741,905.024 532.741,882.69 542,860.5C 572.259,795.98 604.592,732.646 639,670.5C 648.916,652.995 659.583,635.995 671,619.5C 684.891,603.616 698.725,587.783 712.5,572C 711.944,571.617 711.611,571.117 711.5,570.5C 761.859,522.963 815.859,480.13 873.5,442C 884.408,435.046 895.741,428.88 907.5,423.5 Z"/></g>
<g><path style="opacity:1" fill="#78de78" d="M 1036.5,428.5 C 1052.55,428.673 1068.55,429.673 1084.5,431.5C 1061.75,468.667 1039.25,506.001 1017,543.5C 960.755,620.99 904.755,698.657 849,776.5C 771.667,866.5 694.333,956.5 617,1046.5C 617.186,1040.74 618.186,1035.07 620,1029.5C 670.054,862.721 747.054,710.055 851,571.5C 880.386,532.446 914.22,497.612 952.5,467C 961.328,460.752 970.328,454.752 979.5,449C 997.582,439.277 1016.58,432.444 1036.5,428.5 Z"/></g>
<g><path style="opacity:1" fill="#359b35" d="M 711.5,570.5 C 711.611,571.117 711.944,571.617 712.5,572C 698.725,587.783 684.891,603.616 671,619.5C 659.583,635.995 648.916,652.995 639,670.5C 604.592,732.646 572.259,795.98 542,860.5C 532.741,882.69 523.741,905.024 515,927.5C 502.73,963.926 491.396,1000.59 481,1037.5C 472.159,1082.21 462.993,1126.87 453.5,1171.5C 454.791,1171.26 455.791,1171.6 456.5,1172.5C 455.5,1172.5 454.5,1172.5 453.5,1172.5C 420.738,1161.29 388.071,1149.79 355.5,1138C 333.5,1125.33 311.5,1112.67 289.5,1100C 282.252,1089.6 275.252,1079.1 268.5,1068.5C 298.932,1021.96 330.098,975.96 362,930.5C 376.714,912.788 391.047,894.788 405,876.5C 499.038,766.295 601.205,664.295 711.5,570.5 Z"/></g>
<g><path style="opacity:1" fill="#278d27" d="M 1254.5,846.5 C 1220.47,860.912 1186.81,876.412 1153.5,893C 1106.75,903.02 1060.09,913.354 1013.5,924C 1005.48,924.168 997.479,924.668 989.5,925.5C 963.718,968.725 939.218,1012.73 916,1057.5C 915.333,1058.83 914.667,1058.83 914,1057.5C 911.598,1051.46 909.098,1045.46 906.5,1039.5C 906.043,1038.7 905.376,1038.37 904.5,1038.5C 914.751,1011.99 925.584,985.655 937,959.5C 945.046,942.408 953.379,925.408 962,908.5C 989.734,876.758 1020.57,848.591 1054.5,824C 1107.06,787.716 1163.39,758.216 1223.5,735.5C 1227.82,751.642 1232.66,767.642 1238,783.5C 1243.81,804.425 1249.31,825.425 1254.5,846.5 Z"/></g>
<g><path style="opacity:1" fill="#78dd78" d="M 1366.5,919.5 C 1347.65,944.845 1325.32,966.679 1299.5,985C 1274.24,1003.47 1247.24,1019.14 1218.5,1032C 1136.25,1067.63 1054.25,1103.63 972.5,1140C 872.369,1176.27 772.369,1212.93 672.5,1250C 618.115,1264.74 563.781,1279.57 509.5,1294.5C 509.427,1281.39 512.427,1269.06 518.5,1257.5C 579.689,1239.05 641.023,1220.88 702.5,1203C 786.783,1169.27 870.95,1135.44 955,1101.5C 956.169,1100.99 957.002,1100.16 957.5,1099C 1022.59,1073.48 1087.59,1047.82 1152.5,1022C 1198.9,1000.64 1243.23,975.977 1285.5,948C 1296.26,940.58 1305.76,931.746 1314,921.5C 1319.04,915.41 1321.21,908.41 1320.5,900.5C 1320.69,893.763 1321.19,887.096 1322,880.5C 1315.33,867.167 1308.67,853.833 1302,840.5C 1295.25,836.208 1288.42,832.041 1281.5,828C 1278.74,827.218 1276.24,827.718 1274,829.5C 1273.81,827.292 1273.31,825.292 1272.5,823.5C 1269.56,816.548 1267.89,809.215 1267.5,801.5C 1293.09,798.92 1316.42,804.753 1337.5,819C 1354.89,834.609 1364.72,854.109 1367,877.5C 1367.81,891.575 1367.65,905.575 1366.5,919.5 Z"/></g>
<g><path style="opacity:1" fill="#278b27" d="M 1272.5,823.5 C 1273.31,825.292 1273.81,827.292 1274,829.5C 1276.24,827.718 1278.74,827.218 1281.5,828C 1288.42,832.041 1295.25,836.208 1302,840.5C 1308.67,853.833 1315.33,867.167 1322,880.5C 1321.19,887.096 1320.69,893.763 1320.5,900.5C 1319.69,898.369 1319.19,896.036 1319,893.5C 1312.33,881.5 1305.67,869.5 1299,857.5C 1300.03,866.444 1300.7,875.444 1301,884.5C 1296.61,892.997 1292.61,901.664 1289,910.5C 1282.28,881.738 1276.78,852.738 1272.5,823.5 Z"/></g>
<g><path style="opacity:1" fill="#288d28" d="M 1259.5,877.5 C 1262.63,894.943 1264.8,912.609 1266,930.5C 1225.25,954.793 1184.42,978.959 1143.5,1003C 993.03,1060.15 843.697,1119.82 695.5,1182C 628.13,1200.21 560.963,1219.04 494,1238.5C 490.048,1237.44 486.215,1236.44 482.5,1235.5C 481.957,1234.26 481.623,1232.92 481.5,1231.5C 483.911,1215.88 485.911,1200.21 487.5,1184.5C 488.675,1184.28 489.675,1184.61 490.5,1185.5C 489.494,1186.4 489.494,1187.06 490.5,1187.5C 677.975,1149.95 858.975,1092.45 1033.5,1015C 1113.76,979.483 1188.92,935.983 1259,884.5C 1259.5,882.19 1259.66,879.857 1259.5,877.5 Z"/></g>
<g><path style="opacity:1" fill="#59bf59" d="M 1366.5,919.5 C 1360.22,961.869 1341.22,997.369 1309.5,1026C 1304.32,1029.76 1299.32,1033.76 1294.5,1038C 1254.5,1065.33 1214.5,1092.67 1174.5,1120C 1157.03,1129.91 1139.36,1139.57 1121.5,1149C 1122.45,1149.48 1123.45,1149.65 1124.5,1149.5C 1125.24,1149.37 1125.91,1149.54 1126.5,1150C 1070.53,1179.99 1014.53,1209.99 958.5,1240C 1008.28,1230.44 1057.95,1220.11 1107.5,1209C 1153.82,1194 1200.16,1179 1246.5,1164C 1276.14,1152.01 1304.47,1137.68 1331.5,1121C 1357.27,1105.06 1378.6,1084.56 1395.5,1059.5C 1400.81,1077.4 1405.81,1095.4 1410.5,1113.5C 1410.63,1115.65 1410.13,1117.65 1409,1119.5C 1391.64,1145.36 1374.47,1171.36 1357.5,1197.5C 1318.17,1223.5 1278.51,1249 1238.5,1274C 1039.46,1350.76 838.131,1421.1 634.5,1485C 593.836,1493.88 553.17,1502.71 512.5,1511.5C 512.193,1502.26 511.193,1493.09 509.5,1484C 513.415,1456.42 517.749,1428.92 522.5,1401.5C 516.56,1366.37 512.226,1331.04 509.5,1295.5C 492.934,1296.47 476.434,1298.13 460,1300.5C 450.388,1299.44 440.888,1297.77 431.5,1295.5C 431.5,1295.17 431.5,1294.83 431.5,1294.5C 432.57,1278.43 439.237,1265.26 451.5,1255C 452.448,1254.52 453.448,1254.35 454.5,1254.5C 460.961,1255.87 467.294,1257.7 473.5,1260C 479.494,1260.94 485.494,1261.78 491.5,1262.5C 493.265,1263.46 495.265,1263.79 497.5,1263.5C 497.5,1262.5 497.5,1261.5 497.5,1260.5C 504.276,1258.87 511.276,1257.87 518.5,1257.5C 512.427,1269.06 509.427,1281.39 509.5,1294.5C 563.781,1279.57 618.115,1264.74 672.5,1250C 772.369,1212.93 872.369,1176.27 972.5,1140C 1054.25,1103.63 1136.25,1067.63 1218.5,1032C 1247.24,1019.14 1274.24,1003.47 1299.5,985C 1325.32,966.679 1347.65,944.845 1366.5,919.5 Z"/></g>
<g><path style="opacity:1" fill="#4db24d" d="M 294.5,985.5 C 266.048,996.059 238.048,1007.73 210.5,1020.5C 213.19,1017.82 216.19,1015.48 219.5,1013.5C 220.043,1013.44 220.376,1013.11 220.5,1012.5C 213.678,1011.18 207.011,1011.18 200.5,1012.5C 196.873,1013.28 193.54,1014.78 190.5,1017C 187,1020.5 183.5,1024 180,1027.5C 174.196,1042.58 168.196,1057.58 162,1072.5C 161.802,1085.57 165.802,1097.24 174,1107.5C 183.779,1118.61 194.279,1129.11 205.5,1139C 207.392,1139.97 209.392,1140.64 211.5,1141C 235.108,1161.48 261.108,1178.48 289.5,1192C 308.83,1201.17 328.497,1209.5 348.5,1217C 383.802,1229.82 419.135,1242.32 454.5,1254.5C 453.448,1254.35 452.448,1254.52 451.5,1255C 439.237,1265.26 432.57,1278.43 431.5,1294.5C 405.629,1283.57 379.962,1272.07 354.5,1260C 306.346,1233.76 258.68,1206.76 211.5,1179C 197.046,1168.21 182.879,1157.05 169,1145.5C 161.249,1133 153.249,1120.66 145,1108.5C 138.122,1090.24 131.956,1071.74 126.5,1053C 127.508,1045.31 129.342,1037.81 132,1030.5C 138.217,1019.46 145.384,1009.13 153.5,999.5C 162.787,993.853 172.454,988.686 182.5,984C 191.615,983.472 200.615,982.138 209.5,980C 244.096,972.214 278.596,964.048 313,955.5C 314.257,955.85 314.591,956.517 314,957.5C 307.724,967.074 301.224,976.408 294.5,985.5 Z"/></g>
<g><path style="opacity:1" fill="#278d27" d="M 294.5,985.5 C 268.105,1027.95 241.438,1070.28 214.5,1112.5C 201.629,1102.47 192.462,1089.8 187,1074.5C 186.333,1070.5 186.333,1066.5 187,1062.5C 189.36,1054.39 192.027,1046.39 195,1038.5C 199,1033.17 203,1027.83 207,1022.5C 207.816,1021.18 208.983,1020.51 210.5,1020.5C 238.048,1007.73 266.048,996.059 294.5,985.5 Z"/></g>
<g><path style="opacity:1" fill="#278d27" d="M 153.5,999.5 C 145.384,1009.13 138.217,1019.46 132,1030.5C 129.342,1037.81 127.508,1045.31 126.5,1053C 131.956,1071.74 138.122,1090.24 145,1108.5C 153.249,1120.66 161.249,1133 169,1145.5C 182.879,1157.05 197.046,1168.21 211.5,1179C 258.68,1206.76 306.346,1233.76 354.5,1260C 379.962,1272.07 405.629,1283.57 431.5,1294.5C 431.5,1294.83 431.5,1295.17 431.5,1295.5C 431.334,1301.51 431.501,1307.51 432,1313.5C 439.193,1351.33 447.026,1389 455.5,1426.5C 450.767,1454.1 444.767,1481.43 437.5,1508.5C 406.836,1497.56 376.502,1485.72 346.5,1473C 282.755,1442.63 219.755,1410.96 157.5,1378C 136.29,1366.82 120.123,1350.66 109,1329.5C 108.505,1327.53 108.338,1325.53 108.5,1323.5C 111.588,1308.47 115.588,1293.81 120.5,1279.5C 133.574,1293.71 148.574,1305.55 165.5,1315C 191.052,1328.74 217.386,1340.74 244.5,1351C 247.43,1352.32 250.43,1352.98 253.5,1353C 209.611,1309.76 175.111,1259.93 150,1203.5C 141.807,1184.14 133.973,1164.81 126.5,1145.5C 123.414,1121.65 119.247,1097.98 114,1074.5C 112.464,1041.56 125.631,1016.56 153.5,999.5 Z"/></g>
<g><path style="opacity:1" fill="#41a741" d="M 1395.5,1059.5 C 1378.6,1084.56 1357.27,1105.06 1331.5,1121C 1304.47,1137.68 1276.14,1152.01 1246.5,1164C 1200.16,1179 1153.82,1194 1107.5,1209C 1057.95,1220.11 1008.28,1230.44 958.5,1240C 1014.53,1209.99 1070.53,1179.99 1126.5,1150C 1125.91,1149.54 1125.24,1149.37 1124.5,1149.5C 1142.67,1143.28 1161.01,1137.11 1179.5,1131C 1222.83,1106.33 1266.17,1081.67 1309.5,1057C 1326.67,1037.83 1343.83,1018.67 1361,999.5C 1373.28,1019.07 1384.78,1039.07 1395.5,1059.5 Z"/></g>
<g><path style="opacity:1" fill="#285d28" d="M 200.5,1012.5 C 207.011,1011.18 213.678,1011.18 220.5,1012.5C 220.376,1013.11 220.043,1013.44 219.5,1013.5C 213.355,1012.51 207.022,1012.18 200.5,1012.5 Z"/></g>
<g><path style="opacity:1" fill="#0a690a" d="M 268.5,1068.5 C 275.252,1079.1 282.252,1089.6 289.5,1100C 311.5,1112.67 333.5,1125.33 355.5,1138C 388.071,1149.79 420.738,1161.29 453.5,1172.5C 451.002,1191.15 448.669,1209.81 446.5,1228.5C 406.252,1214.03 366.252,1198.86 326.5,1183C 293.703,1168.45 263.036,1150.61 234.5,1129.5C 233.417,1128.64 233.251,1127.64 234,1126.5C 245.274,1106.94 256.774,1087.6 268.5,1068.5 Z"/></g>
<g><path style="opacity:1" fill="#288d28" d="M 1410.5,1113.5 C 1420.17,1153.47 1411.34,1188.81 1384,1219.5C 1370.37,1234.8 1355.21,1248.3 1338.5,1260C 1308.06,1280.56 1276.06,1298.56 1242.5,1314C 1153.65,1346.59 1064.65,1378.92 975.5,1411C 866.411,1445.95 757.411,1481.29 648.5,1517C 609.355,1528.22 570.022,1538.72 530.5,1548.5C 529.325,1548.72 528.325,1548.39 527.5,1547.5C 525.527,1542.22 523.027,1537.22 520,1532.5C 517.932,1526.13 515.765,1519.8 513.5,1513.5C 512.675,1512.61 511.675,1512.28 510.5,1512.5C 510.842,1511.66 511.508,1511.33 512.5,1511.5C 553.17,1502.71 593.836,1493.88 634.5,1485C 838.131,1421.1 1039.46,1350.76 1238.5,1274C 1278.51,1249 1318.17,1223.5 1357.5,1197.5C 1374.47,1171.36 1391.64,1145.36 1409,1119.5C 1410.13,1117.65 1410.63,1115.65 1410.5,1113.5 Z"/></g>
<g><path style="opacity:1" fill="#0a690a" d="M 126.5,1145.5 C 133.973,1164.81 141.807,1184.14 150,1203.5C 175.111,1259.93 209.611,1309.76 253.5,1353C 250.43,1352.98 247.43,1352.32 244.5,1351C 217.386,1340.74 191.052,1328.74 165.5,1315C 148.574,1305.55 133.574,1293.71 120.5,1279.5C 121.122,1278.37 121.955,1277.37 123,1276.5C 127.648,1252.91 131.814,1229.24 135.5,1205.5C 132.499,1185.49 129.499,1165.49 126.5,1145.5 Z"/></g>
<g><path style="opacity:1" fill="#137513" d="M 453.5,1172.5 C 454.5,1172.5 455.5,1172.5 456.5,1172.5C 466.229,1178.08 476.562,1182.08 487.5,1184.5C 485.911,1200.21 483.911,1215.88 481.5,1231.5C 481.623,1232.92 481.957,1234.26 482.5,1235.5C 470.281,1233.66 458.281,1231.32 446.5,1228.5C 448.669,1209.81 451.002,1191.15 453.5,1172.5 Z"/></g>
<g><path style="opacity:1" fill="#265226" d="M 497.5,1260.5 C 497.5,1261.5 497.5,1262.5 497.5,1263.5C 495.265,1263.79 493.265,1263.46 491.5,1262.5C 493.886,1262.74 495.886,1262.07 497.5,1260.5 Z"/></g>
<g><path style="opacity:1" fill="#41a741" d="M 431.5,1295.5 C 440.888,1297.77 450.388,1299.44 460,1300.5C 476.434,1298.13 492.934,1296.47 509.5,1295.5C 512.226,1331.04 516.56,1366.37 522.5,1401.5C 517.749,1428.92 513.415,1456.42 509.5,1484C 511.193,1493.09 512.193,1502.26 512.5,1511.5C 511.508,1511.33 510.842,1511.66 510.5,1512.5C 501.691,1515.06 492.691,1516.73 483.5,1517.5C 468.041,1515.01 452.708,1512.01 437.5,1508.5C 444.767,1481.43 450.767,1454.1 455.5,1426.5C 447.026,1389 439.193,1351.33 432,1313.5C 431.501,1307.51 431.334,1301.51 431.5,1295.5 Z"/></g>
<g><path style="opacity:1" fill="#09690a" d="M 108.5,1323.5 C 108.338,1325.53 108.505,1327.53 109,1329.5C 120.123,1350.66 136.29,1366.82 157.5,1378C 219.755,1410.96 282.755,1442.63 346.5,1473C 376.502,1485.72 406.836,1497.56 437.5,1508.5C 439.087,1520.86 440.92,1533.19 443,1545.5C 443.348,1549.18 444.515,1552.51 446.5,1555.5C 409.427,1543.42 372.761,1530.25 336.5,1516C 299.074,1499.12 262.074,1481.45 225.5,1463C 194.986,1447.14 166.653,1428.14 140.5,1406C 123.273,1391.7 111.439,1373.87 105,1352.5C 104.23,1342.48 105.397,1332.82 108.5,1323.5 Z"/></g>
<g><path style="opacity:1" fill="#147514" d="M 437.5,1508.5 C 452.708,1512.01 468.041,1515.01 483.5,1517.5C 492.691,1516.73 501.691,1515.06 510.5,1512.5C 511.675,1512.28 512.675,1512.61 513.5,1513.5C 515.765,1519.8 517.932,1526.13 520,1532.5C 523.027,1537.22 525.527,1542.22 527.5,1547.5C 528.325,1548.39 529.325,1548.72 530.5,1548.5C 515.301,1553.73 499.968,1558.9 484.5,1564C 480.167,1564.67 475.833,1564.67 471.5,1564C 463.191,1561.01 454.858,1558.18 446.5,1555.5C 444.515,1552.51 443.348,1549.18 443,1545.5C 440.92,1533.19 439.087,1520.86 437.5,1508.5 Z"/></g>
</svg>
